<?xml version="1.0"?>
<svg xmlns="http://www.w3.org/2000/svg" height="512px" viewBox="0 0 512 512" width="512px" class=""><g><g id="Flat"><path d="m129.359 81.933 107.636 186.431-96.995 56-108-187.061z" fill="#0093ba" data-original="#0093BA" class="active-path" style="fill:#5F7D95" data-old_color="#0093ba"/><path d="m143.713 272.651h16v16h-16z" fill="#7ecce6" transform="matrix(.866 -.5 .5 .866 -120 113.456)" data-original="#7ECCE6" class="" style="fill:#C7EBFF" data-old_color="#7ecce6"/><path d="m232 160h-32l-43.029 43.029a16.972 16.972 0 0 1 -12 4.971 16.971 16.971 0 0 1 -16.971-16.971 16.972 16.972 0 0 1 4.971-12l19.029-19.029h-56a24 24 0 0 1 -24-24v-56a24 24 0 0 1 24-24h46.059a81.941 81.941 0 0 1 57.941 24h32z" fill="#f5be9a" data-original="#F5BE9A" class="" style="fill:#FFDECC" data-old_color="#f5be9a"/><path d="m224 64h216v112h-216z" fill="#0093ba" data-original="#0093BA" class="active-path" style="fill:#5F7D95" data-old_color="#0093ba"/><path d="m248 88h16v16h-16z" fill="#7ecce6" data-original="#7ECCE6" class="" style="fill:#C7EBFF" data-old_color="#7ecce6"/><path d="m318.386 228.435 16.328-28.281-15.75-58.779a16.973 16.973 0 0 1 1.695-12.878 16.972 16.972 0 0 1 23.183-6.212 16.971 16.971 0 0 1 7.907 10.305l6.965 26 28-48.5a24 24 0 0 1 32.786-8.79l48.5 28a24 24 0 0 1 8.785 32.784l-23.03 39.888a81.94 81.94 0 0 1 -49.755 38.182l-16.172 28.01z" fill="#f5be9a" data-original="#F5BE9A" class="" style="fill:#FFDECC" data-old_color="#f5be9a"/><path d="m200.776 400.141 108.082-187.202 96.994 56-108 187.061z" fill="#0093ba" data-original="#0093BA" class="active-path" style="fill:#5F7D95" data-old_color="#0093ba"/><path d="m354.14 272.651h16v16h-16z" fill="#7ecce6" transform="matrix(.5 -.866 .866 .5 -61.981 453.948)" data-original="#7ECCE6" class="" style="fill:#C7EBFF" data-old_color="#7ecce6"/><path d="m223.138 276.364 12 20.785 58.78 15.75a16.969 16.969 0 0 1 10.3 7.907 16.969 16.969 0 0 1 -6.211 23.182 16.973 16.973 0 0 1 -12.878 1.695l-26-6.965 28 48.5a24 24 0 0 1 -8.775 32.782l-48.5 28a24 24 0 0 1 -32.784-8.785l-23.03-39.888a81.943 81.943 0 0 1 -8.186-62.178l-12-20.785z" fill="#f5be9a" data-original="#F5BE9A" class="" style="fill:#FFDECC" data-old_color="#f5be9a"/></g></g> </svg>
