<svg xmlns="http://www.w3.org/2000/svg" height="512" viewBox="0 -9 512 512" width="512" class=""><g><g><path d="m474.199219 18.855469c1.5 8.6875 15.84375 27.308593 13.265625 35.839843-1.808594 5.976563-19.472656 1.769532-23.335938 7.460938-27.476562-20.140625-77.996094-28.160156-151.636718-15.363281-10.070313 1.792969-20.90625 3.671875-32.085938 5.804687-4.4375-5.324218-20.15625-.664062-25.832031-4.566406-7.96875-5.476562-6.390625-18.773438-15.8125-21.460938 29.417969-8.292968 59.238281-15.085937 89.34375-20.34375 76.117187-13.3125 127.488281-4.265624 154.371093 17.492188-2.691406-1.859375-5.484374-3.570312-8.363281-5.117188.011719.089844.042969.175782.085938.253907zm0 0" fill="#7f8c8d" data-original="#7F8C8D"></path><path d="m8.535156 383.996094h494.929688v102.402344c0 4.710937-3.820313 8.53125-8.53125 8.53125h-477.867188c-4.710937 0-8.53125-3.820313-8.53125-8.53125zm0 0" fill="#fb7b76" data-original="#FB7B76" class=""></path><path d="m503.464844 392.53125h-494.929688c-4.714844 0-8.535156-3.820312-8.535156-8.535156 0-4.710938 3.820312-8.53125 8.535156-8.53125h494.929688c4.714844 0 8.535156 3.820312 8.535156 8.53125 0 4.714844-3.820312 8.535156-8.535156 8.535156zm0 0" fill="#df4d60" data-original="#DF4D60" class=""></path><path d="m495.105469 346.964844c-5.824219 12.199218-12.347657 24.050781-19.542969 35.496094-6.945312 12.347656-11.492188 25.898437-13.398438 39.9375-1.371093 15.132812-3.910156 30.140624-7.59375 44.886718-2.984374 10.75-7.679687 27.644532-21.503906 27.644532-1.933594-.070313-3.777344-.828126-5.203125-2.132813-10.496093-8.789063-17.75-43.347656-21.675781-71.082031-2.5625-18.347656-11.09375-22.101563-17.835938-22.867188h-.171874c-2.210938.167969-4.367188.808594-6.3125 1.875-5.035157 2.476563-9.730469 8.191406-11.519532 20.992188-4.523437 32-13.484375 73.214844-26.882812 73.214844-2.75.050781-5.453125-.722657-7.761719-2.21875-8.023437-4.863282-11.4375-16.980469-13.742187-25.425782-3.679688-14.746094-6.21875-29.753906-7.59375-44.886718-1.90625-14.039063-6.449219-27.589844-13.398438-39.9375-7.191406-11.445313-13.71875-23.296876-19.539062-35.496094-11.351563-28.84375-13.996094-67.5 10.15625-90.539063 11.085937-10.195312 25.332031-16.277343 40.359374-17.238281h.429688c17.457031-1.480469 34.894531 3.066406 49.40625 12.886719 2.308594 1.476562 4.480469 3.164062 6.484375 5.03125 12.046875-10.421875 27.125-16.703125 43.007813-17.917969h.34375c19.410156-2.019531 38.773437 4.238281 53.332031 17.238281 24.148437 23.039063 21.503906 61.695313 10.15625 90.539063zm0 0" fill="#e4c05c" data-original="#F0D68C" class="active-path" style="fill:#CBB292" data-old_color="#e4c05c"></path><path d="m283.648438 56.746094c-1.023438-1.453125-2.132813-2.816406-3.242188-4.183594-10.9375-12.679688-25.453125-21.753906-41.644531-26.027344-9.765625-2.734375-19.902344-3.914062-30.035157-3.496094-.128906-.085937-.296874-.085937-.429687 0-1.453125 0-2.90625.085938-4.351563.253907 24.738282 1.558593 47.582032 13.761719 62.636719 33.453125 13.480469 18.773437 14.507813 48.554687 9.128907 76.796875l-.765626 2.816406c6.058594-.9375 12.03125-1.875 17.832032-2.816406 5.378906-28.242188 4.351562-58.023438-9.128906-76.796875zm-20.222657 117.589844c-3.101562 7.402343-8.523437 13.601562-15.445312 17.660156-16.855469 8.65625-35.589844 12.996094-54.53125 12.632812 1.621093.082032 3.242187.082032 4.867187.082032.566406.042968 1.136719.042968 1.703125 0 34.050781.429687 53.847657-6.140626 65.027344-12.714844 6.921875-4.058594 12.34375-10.257813 15.445313-17.660156.597656-1.273438 1.113281-2.585938 1.535156-3.925782-5.890625.597656-11.777344 1.109375-17.664063 1.535156-.261719.816407-.574219 1.613282-.9375 2.390626zm0 0" fill="#e4c05c" data-original="#F0D68C" class="active-path" style="fill:#CBB292" data-old_color="#e4c05c"></path><path d="m275.710938 133.542969-.765626 2.816406h-.085937c-56.234375 8.363281-119.125 14.765625-157.355469 8.875-3.601562-.515625-7.050781 1.648437-8.148437 5.117187-1.101563 3.46875.46875 7.226563 3.710937 8.878907 29.695313 14.507812 89.003906 17.152343 151.296875 12.714843-.261719.816407-.574219 1.613282-.9375 2.390626-3.101562 7.402343-8.523437 13.601562-15.445312 17.660156-16.855469 8.65625-35.589844 12.996094-54.53125 12.632812-2.898438-.085937-5.800781-.171875-8.875-.429687-16.664063-1.183594-33.25-3.351563-49.664063-6.484375-16.46875-2.953125-32.738281-6.914063-48.722656-11.859375-41.8125-13.058594-61.441406-28.671875-70.65625-40.277344-4.992188-6.316406-7.832031-14.058594-8.105469-22.101563-1.539062-38.230468 10.066407-91.648437 39.335938-110.847656 10.707031-6.902344 22.96875-11.007812 35.671875-11.949218 1.277344-.167969 2.558594-.253907 3.839844-.339844 27.605468-1.347656 54.453124 9.289062 73.640624 29.183594.855469.851562 1.707032 1.792968 2.476563 2.730468.835937.847656 1.605469 1.761719 2.300781 2.730469 0 .085937.085938.171875.171875.257813.085938.082031.085938.167968.257813.253906 4.921875-3.085938 10.191406-5.578125 15.699218-7.421875 7.46875-2.589844 15.242188-4.195313 23.125-4.78125 24.738282 1.558593 47.582032 13.761719 62.636719 33.453125 13.480469 18.773437 14.507813 48.554687 9.128907 76.796875zm0 0" fill="#f9eab0" data-original="#F6F4E8" class="" style="fill:#F6F4E8" data-old_color="#f9eab0"></path><path d="m233.8125 74.664062c-.738281 4.042969-4.253906 6.984376-8.363281 6.996094-.515625-.011718-1.027344-.070312-1.535157-.167968-29.269531-5.460938-56.320312-42.410157-59.050781-46.25l.257813.253906c4.921875-3.085938 10.191406-5.578125 15.699218-7.421875 8.535157 11.261719 28.503907 33.363281 46.167969 36.691406 2.222657.394531 4.199219 1.664063 5.480469 3.523437 1.28125 1.859376 1.765625 4.15625 1.34375 6.375zm0 0" fill="#e4c05c" data-original="#F0D68C" class="active-path" style="fill:#CBB292" data-old_color="#e4c05c"></path><path d="m44.144531 104.957031c-4.453125.015625-8.167969-3.394531-8.535156-7.832031-3.867187-46.933594 23.773437-67.105469 38.929687-71.195312 4.5-1.128907 9.078126 1.539062 10.308594 6.015624 1.230469 4.472657-1.339844 9.109376-5.785156 10.4375-1.367188.402344-30.074219 9.335938-26.453125 53.34375.382813 4.695313-3.113281 8.8125-7.808594 9.199219-.21875.019531-.4375.03125-.65625.03125zm0 0" fill="#fff" data-original="#FFF"></path><path d="m495.1875 90.878906c-.082031.167969-.253906.339844-.339844.511719-17.578125 29.867187-63.0625 56.0625-139.777344 69.375-23.378906 4.097656-48.210937 7.425781-73.042968 9.644531-5.890625.597656-11.777344 1.109375-17.664063 1.535156-62.292969 4.4375-121.601562 1.792969-151.296875-12.714843-3.242187-1.652344-4.8125-5.410157-3.710937-8.878907 1.097656-3.46875 4.546875-5.632812 8.148437-5.117187 38.230469 5.890625 101.121094-.511719 157.355469-8.875h.085937c6.058594-.9375 12.03125-1.875 17.832032-2.816406 11.863281-1.875 23.210937-3.753907 33.792968-5.628907 73.644532-12.886718 118.527344-37.460937 137.558594-65.792968 8.996094-12.5 12.621094-28.078125 10.070313-43.265625-.042969-.078125-.074219-.164063-.085938-.253907 2.878907 1.546876 5.671875 3.257813 8.363281 5.117188h.082032c.171875.085938.34375.34375.597656.429688l.085938.085937.085937.082031c9.859375 7.859375 16.800781 18.796875 19.710937 31.0625.085938.171875.171876.257813.171876.425782v.171874c1.097656 12.191407-1.710938 24.414063-8.023438 34.902344zm0 0" fill="#95a5a5" data-original="#95A5A5" class=""></path><path d="m230.570312 346.964844c-5.820312 12.199218-12.347656 24.050781-19.539062 35.496094-6.949219 12.347656-11.492188 25.898437-13.398438 39.9375-1.375 15.132812-3.914062 30.140624-7.59375 44.886718-2.988281 10.75-7.683593 27.644532-21.503906 27.644532-1.933594-.070313-3.777344-.828126-5.207031-2.132813-10.496094-8.789063-17.75-43.347656-21.675781-71.082031-2.558594-18.347656-11.09375-22.101563-17.832032-22.867188h-.171874c-2.214844.167969-4.367188.808594-6.316407 1.875-5.035156 2.476563-9.726562 8.191406-11.519531 20.992188-4.523438 32.085937-13.480469 73.214844-26.878906 73.214844-2.714844.050781-5.382813-.691407-7.679688-2.132813-8.105468-4.777344-11.519531-16.980469-13.824218-25.597656-3.703126-14.710938-6.242188-29.691407-7.59375-44.800781-1.90625-14.039063-6.453126-27.589844-13.398438-39.9375-5.859375-8.230469-10.703125-17.140626-14.421875-26.539063-2.902344-11.519531 5.886719-17.664063 15.105469-22.101563 12.203125-5.886718 20.734375-10.066406 25.941406-23.636718 4.523438-13.363282 12.785156-25.152344 23.808594-33.960938 11.542968-8.578125 24.027344-15.820312 37.203125-21.589844 13.742187-7.328124 28.539062-12.480468 43.863281-15.273437h.082031c19.085938-1.898437 38.089844 4.292969 52.394531 17.066406 24.152344 23.039063 21.507813 61.695313 10.15625 90.539063zm0 0" fill="#e4c05c" data-original="#F0D68C" class="active-path" style="fill:#CBB292" data-old_color="#e4c05c"></path><path d="m388.265625 257.105469c12.046875-10.421875 27.125-16.703125 43.007813-17.917969h.34375c15.027343.960938 29.273437 7.042969 40.363281 17.238281 24.148437 23.039063 21.503906 61.695313 10.152343 90.539063-5.789062 12.214844-12.3125 24.070312-19.539062 35.496094-6.957031 12.335937-11.476562 25.894531-13.3125 39.9375-1.402344 15.136718-3.96875 30.144531-7.679688 44.886718-2.304687 8.445313-5.71875 20.648438-13.738281 25.511719-10.496093-8.789063-17.75-43.347656-21.675781-71.082031-1.265625-9.070313-4.796875-19.457032-14.507812-22.1875-9.496094-3.207032-19.980469-1.203125-27.621094 5.285156-3.761719 4.90625-6.0625 10.773438-6.640625 16.929688-3.839844 27.730468-11.09375 62.292968-21.675781 70.996093-8.019532-4.863281-11.433594-16.980469-13.738282-25.429687-3.679687-14.742188-6.21875-29.75-7.59375-44.886719-1.90625-14.035156-6.449218-27.585937-13.398437-39.933594-7.191407-11.445312-13.71875-23.296875-19.539063-35.5-11.351562-28.84375-13.996094-67.496093 10.152344-90.539062 11.089844-10.191407 25.335938-16.277344 40.363281-17.234375h.425781c18.3125 2.910156 35.292969 11.371094 48.640626 24.242187" fill="#f9eab0" data-original="#F6F4E8" class="" style="fill:#F6F4E8" data-old_color="#f9eab0"></path><path d="m217.601562 346.964844c-5.789062 12.214844-12.316406 24.070312-19.542968 35.496094-6.957032 12.335937-11.476563 25.894531-13.3125 39.9375-1.402344 15.136718-3.96875 30.144531-7.679688 44.886718-2.304687 8.445313-5.71875 20.648438-13.738281 25.511719-10.496094-8.789063-17.75-43.347656-21.675781-71.082031-.339844-7.785156-3.925782-15.074219-9.890625-20.09375-2.0625-1.339844-4.390625-2.214844-6.824219-2.5625-9.046875-1.320313-21.078125-1.074219-26.8125 7.324218-2.890625 4.652344-4.679688 9.90625-5.230469 15.359376-3.925781 27.730468-11.09375 62.207031-21.675781 71.082031-8.105469-4.78125-11.519531-16.980469-13.824219-25.601563-3.703125-14.710937-6.242187-29.691406-7.59375-44.800781-1.90625-14.035156-6.453125-27.585937-13.398437-39.933594-5.859375-8.230469-10.703125-17.144531-14.421875-26.539062-2.898438-11.519531 5.890625-17.664063 15.105469-22.101563 12.203124-5.886718 20.734374-10.070312 25.941406-23.636718 4.523437-13.367188 12.785156-25.152344 23.808594-33.964844 11.546874-8.578125 24.027343-15.820313 37.203124-21.585938 13.769532-7.34375 28.59375-12.496094 43.949219-15.277344 14.6875 1.089844 28.578125 7.105469 39.421875 17.066407 24.183594 23.015625 21.539063 61.671875 10.191406 90.515625zm0 0" fill="#f9eab0" data-original="#F6F4E8" class="" style="fill:#F6F4E8" data-old_color="#f9eab0"></path><path d="m308.445312 332.796875c-4.027343-.003906-7.503906-2.824219-8.335937-6.765625-5.550781-24.890625 5.671875-50.507812 27.734375-63.300781 4.117188-2.15625 9.199219-.617188 11.4375 3.457031 2.234375 4.074219.800781 9.1875-3.230469 11.503906-15.441406 9.1875-23.210937 27.277344-19.242187 44.808594.46875 2.214844.039062 4.527344-1.195313 6.425781-1.238281 1.898438-3.175781 3.226563-5.390625 3.691407-.585937.121093-1.179687.179687-1.777344.179687zm0 0" fill="#fff" data-original="#FFF"></path></g></g> </svg>