<svg xmlns="http://www.w3.org/2000/svg" height="512" viewBox="0 -4 511.99809 511" width="512" class=""><g><path d="m503.472656 9.039062-2.695312 7.007813c-24.082032 62.609375-84.238282 103.925781-151.320313 103.925781h-186.882812c-67.089844.007813-127.25-41.308594-151.335938-103.925781l-2.699219-7.007813" fill="#d75e72" data-original="#D75E72" class=""></path><path d="m59.742188 327.761719v-20.054688c.027343-9.414062 7.652343-17.039062 17.066406-17.066406h17.066406c9.414062.027344 17.039062 7.652344 17.066406 17.066406v9.726563zm0 0" fill="#95a5a5" data-original="#95A5A5"></path><path d="m179.207031 310.179688v-19.539063c.027344-9.414063 7.652344-17.039063 17.066407-17.066406h17.066406c9.414062.027343 17.039062 7.652343 17.066406 17.066406v17.320313zm0 0" fill="#95a5a5" data-original="#95A5A5"></path><path d="m281.609375 307.960938v-17.320313c.027344-9.414063 7.652344-17.039063 17.066406-17.066406h17.066407c9.414062.027343 17.039062 7.652343 17.066406 17.066406v19.539063zm0 0" fill="#95a5a5" data-original="#95A5A5"></path><path d="m401.074219 317.433594v-9.726563c.027343-9.414062 7.652343-17.039062 17.066406-17.066406h17.066406c9.414063.027344 17.039063 7.652344 17.066407 17.066406v20.054688zm0 0" fill="#95a5a5" data-original="#95A5A5"></path><path d="m349.457031 128.507812h-186.882812c-70.53125-.28125-133.714844-43.671874-159.308594-109.398437l-2.695313-7.007813c-1.691406-4.398437.503907-9.339843 4.90625-11.03125 4.402344-1.691406 9.34375.503907 11.035157 4.90625l2.6875 7.003907c23.027343 59.152343 79.886719 98.203125 143.359375 98.460937h186.878906c63.476562-.257812 120.335938-39.308594 143.363281-98.460937l2.6875-7.003907c1.691407-4.402343 6.628907-6.597656 11.03125-4.90625 4.402344 1.691407 6.601563 6.632813 4.90625 11.03125l-2.695312 7.007813c-25.585938 65.714844-88.753907 109.101563-159.273438 109.398437zm0 0" fill="#df4d60" data-original="#DF4D60"></path><g fill="#c03a2b"><path d="m204.808594 247.972656c-4.714844 0-8.535156-3.820312-8.535156-8.53125v-64.734375l-11.03125 11.03125c-3.351563 3.234375-8.671876 3.1875-11.964844-.101562-3.289063-3.292969-3.335938-8.613281-.101563-11.964844l25.597657-25.597656c2.441406-2.441407 6.109374-3.171875 9.300781-1.851563 3.1875 1.324219 5.265625 4.433594 5.265625 7.882813v85.335937c0 4.710938-3.820313 8.53125-8.53125 8.53125zm0 0" data-original="#C03A2B" class=""></path><path d="m230.40625 188.238281c-2.261719 0-4.433594-.898437-6.03125-2.5l-25.601562-25.597656c-3.234376-3.347656-3.1875-8.671875.105468-11.964844 3.292969-3.289062 8.613282-3.335937 11.960938-.101562l25.601562 25.597656c2.4375 2.441406 3.167969 6.113281 1.847656 9.300781-1.320312 3.1875-4.429687 5.265625-7.882812 5.265625zm0 0" data-original="#C03A2B" class=""></path><path d="m307.207031 247.972656c-4.710937 0-8.53125-3.820312-8.53125-8.53125v-64.734375l-11.035156 11.03125c-3.347656 3.234375-8.671875 3.1875-11.960937-.101562-3.292969-3.292969-3.339844-8.613281-.105469-11.964844l25.601562-25.597656c2.4375-2.441407 6.109375-3.171875 9.296875-1.851563 3.1875 1.324219 5.265625 4.433594 5.269532 7.882813v85.335937c0 4.710938-3.820313 8.53125-8.535157 8.53125zm0 0" data-original="#C03A2B" class=""></path><path d="m332.808594 188.238281c-2.265625 0-4.433594-.898437-6.035156-2.5l-25.597657-25.597656c-3.234375-3.347656-3.1875-8.671875.101563-11.964844 3.292968-3.289062 8.613281-3.335937 11.964844-.101562l25.597656 25.597656c2.441406 2.441406 3.171875 6.113281 1.851562 9.300781-1.320312 3.1875-4.433594 5.265625-7.882812 5.265625zm0 0" data-original="#C03A2B" class=""></path><path d="m426.675781 265.039062c-4.714843 0-8.535156-3.820312-8.535156-8.53125v-64.734374l-11.035156 11.03125c-3.347657 3.234374-8.667969 3.1875-11.960938-.101563-3.289062-3.292969-3.335937-8.613281-.101562-11.964844l25.597656-25.597656c2.441406-2.441406 6.109375-3.167969 9.300781-1.847656 3.1875 1.320312 5.265625 4.429687 5.265625 7.878906v85.335937c0 4.710938-3.820312 8.53125-8.53125 8.53125zm0 0" data-original="#C03A2B" class=""></path><path d="m452.273438 205.304688c-2.261719 0-4.433594-.898438-6.03125-2.5l-25.601563-25.597657c-3.234375-3.347656-3.1875-8.671875.105469-11.960937 3.289062-3.292969 8.613281-3.339844 11.960937-.105469l25.601563 25.597656c2.4375 2.441407 3.167968 6.113281 1.847656 9.300781s-4.429688 5.265626-7.882812 5.265626zm0 0" data-original="#C03A2B" class=""></path><path d="m76.808594 265.039062c-4.714844 0-8.535156-3.820312-8.535156-8.53125v-64.734374l-11.03125 11.03125c-3.351563 3.234374-8.671876 3.1875-11.964844-.101563-3.289063-3.292969-3.335938-8.613281-.101563-11.964844l25.597657-25.597656c2.441406-2.441406 6.109374-3.167969 9.300781-1.847656 3.1875 1.320312 5.265625 4.429687 5.265625 7.878906v85.335937c0 4.710938-3.820313 8.53125-8.53125 8.53125zm0 0" data-original="#C03A2B" class=""></path><path d="m102.40625 205.304688c-2.261719 0-4.433594-.898438-6.03125-2.5l-25.601562-25.597657c-3.234376-3.347656-3.1875-8.671875.105468-11.960937 3.292969-3.292969 8.613282-3.339844 11.960938-.105469l25.601562 25.597656c2.4375 2.441407 3.167969 6.113281 1.847656 9.300781-1.320312 3.1875-4.429687 5.265626-7.882812 5.265626zm0 0" data-original="#C03A2B" class=""></path></g><path d="m503.472656 358.90625v68.265625c0 4.714844-3.820312 8.535156-8.53125 8.535156v-5.71875c.484375-4.390625-.875-8.78125-3.757812-12.132812-2.878906-3.347657-7.019532-5.351563-11.433594-5.53125-5.207031.0625-10.117188 2.441406-13.394531 6.488281-3.632813 4.386719-5.597657 9.917969-5.546875 15.613281v-7.253906c.339844-7.136719-2.347656-14.085937-7.402344-19.136719-5.050781-5.054687-12-7.742187-19.136719-7.402344-18.328125.011719-33.1875 14.867188-33.195312 33.195313v-6.65625c.394531-8.171875-2.679688-16.128906-8.464844-21.914063-5.785156-5.785156-13.742187-8.859374-21.914063-8.464843-10.0625 0-19.714843 4.003906-26.824218 11.125-7.109375 7.125-11.089844 16.785156-11.0625 26.851562v-7.597656c.441406-9.179687-3.011719-18.121094-9.511719-24.621094s-15.441406-9.953125-24.621094-9.511719c-11.328125-.035156-22.199219 4.449219-30.210937 12.460938-8.007813 8.007812-12.492188 18.878906-12.457032 30.207031.035157-11.328125-4.449218-22.199219-12.460937-30.207031-8.007813-8.011719-18.878906-12.496094-30.207031-12.460938-9.179688-.441406-18.121094 3.011719-24.621094 9.511719s-9.953125 15.441407-9.511719 24.621094v7.597656c.027344-10.066406-3.957031-19.726562-11.0625-26.851562-7.109375-7.121094-16.761719-11.125-26.824219-11.125-8.171874-.394531-16.128906 2.679687-21.914062 8.464843-5.785156 5.785157-8.859375 13.742188-8.464844 21.914063v6.65625c-.011718-18.328125-14.867187-33.183594-33.195312-33.195313-7.136719-.339843-14.085938 2.347657-19.140625 7.402344-5.050781 5.050782-7.738281 12-7.398438 19.136719v7.253906c.050781-5.695312-1.914062-11.226562-5.546875-15.613281-3.277344-4.046875-8.1875-6.425781-13.398437-6.488281-4.410157.179687-8.550781 2.183593-11.429688 5.53125-2.882812 3.351562-4.242187 7.742187-3.757812 12.132812v5.71875c-4.710938 0-8.535157-3.820312-8.535157-8.535156v-68.265625c0-28.246094 110.765626-51.199219 247.46875-51.199219 136.703126 0 247.464844 22.953125 247.464844 51.199219zm0 0" fill="#d75e72" data-original="#D75E72" class=""></path><path d="m256.007812 427.171875v51.203125c-.027343 9.414062-7.652343 17.035156-17.066406 17.066406h-42.667968c-9.414063-.03125-17.039063-7.652344-17.066407-17.066406v-59.734375c-.441406-9.183594 3.011719-18.125 9.511719-24.625s15.441406-9.953125 24.621094-9.507813c11.328125-.035156 22.199218 4.449219 30.207031 12.457032 8.011719 8.011718 12.496094 18.882812 12.460937 30.207031zm0 0" fill="#fac176" data-original="#FAC176" class="active-path" style="fill:#CBB292" data-old_color="#fac176"></path><path d="m179.207031 426.234375v43.605469c-.027343 9.414062-7.652343 17.039062-17.066406 17.066406h-34.132813c-9.414062-.027344-17.039062-7.652344-17.066406-17.066406v-51.199219c-.394531-8.171875 2.679688-16.128906 8.464844-21.914063 5.785156-5.785156 13.742188-8.859374 21.914062-8.464843 10.0625-.003907 19.714844 4 26.824219 11.125 7.105469 7.125 11.089844 16.785156 11.0625 26.847656zm0 0" fill="#fac176" data-original="#FAC176" class="active-path" style="fill:#CBB292" data-old_color="#fac176"></path><path d="m110.941406 425.296875v36.007813c-.027344 9.414062-7.652344 17.039062-17.066406 17.070312h-25.601562c-9.414063-.03125-17.039063-7.65625-17.066407-17.070312v-42.664063c-.339843-7.136719 2.347657-14.085937 7.398438-19.140625 5.054687-5.050781 12.003906-7.738281 19.140625-7.398438 18.328125.007813 33.183594 14.867188 33.195312 33.195313zm0 0" fill="#fac176" data-original="#FAC176" class="active-path" style="fill:#CBB292" data-old_color="#fac176"></path><path d="m51.207031 425.894531v30.976563c.171875 2.253906-1.5 4.230468-3.753906 4.433594h-13.3125c-9.414063-.027344-17.039063-7.652344-17.066406-17.066407v-22.78125c-.484375-4.390625.875-8.785156 3.757812-12.132812 2.878907-3.351563 7.019531-5.351563 11.429688-5.53125 5.210937.0625 10.121093 2.4375 13.398437 6.484375 3.632813 4.390625 5.597656 9.917968 5.546875 15.617187zm0 0" fill="#fac176" data-original="#FAC176" class="active-path" style="fill:#CBB292" data-old_color="#fac176"></path><path d="m332.808594 418.640625v59.734375c-.027344 9.414062-7.652344 17.035156-17.066406 17.066406h-42.667969c-9.414063-.03125-17.039063-7.652344-17.066407-17.066406v-51.203125c-.035156-11.324219 4.449219-22.195313 12.457032-30.207031 8.011718-8.007813 18.882812-12.492188 30.210937-12.457032 9.179688-.445312 18.121094 3.007813 24.621094 9.507813s9.953125 15.441406 9.511719 24.625zm0 0" fill="#fac176" data-original="#FAC176" class="active-path" style="fill:#CBB292" data-old_color="#fac176"></path><path d="m401.074219 418.640625v51.199219c-.027344 9.414062-7.652344 17.039062-17.066407 17.066406h-34.132812c-9.414062-.027344-17.039062-7.652344-17.066406-17.066406v-43.605469c-.027344-10.0625 3.953125-19.722656 11.0625-26.847656s16.761718-11.128907 26.824218-11.125c8.171876-.394531 16.128907 2.679687 21.914063 8.464843 5.785156 5.785157 8.859375 13.742188 8.464844 21.914063zm0 0" fill="#fac176" data-original="#FAC176" class="active-path" style="fill:#CBB292" data-old_color="#fac176"></path><path d="m460.808594 418.640625v42.664063c-.027344 9.414062-7.652344 17.039062-17.066406 17.070312h-25.601563c-9.414063-.03125-17.039063-7.65625-17.066406-17.070312v-36.007813c.007812-18.328125 14.867187-33.1875 33.195312-33.195313 7.136719-.339843 14.085938 2.347657 19.136719 7.398438 5.054688 5.054688 7.742188 12.003906 7.402344 19.140625zm0 0" fill="#fac176" data-original="#FAC176" class="active-path" style="fill:#CBB292" data-old_color="#fac176"></path><path d="m494.941406 421.457031v22.78125c-.027344 9.414063-7.652344 17.039063-17.066406 17.066407h-13.3125c-2.253906-.203126-3.925781-2.179688-3.753906-4.433594v-30.976563c-.050782-5.699219 1.914062-11.226562 5.546875-15.617187 3.277343-4.046875 8.1875-6.421875 13.394531-6.484375 4.414062.179687 8.554688 2.179687 11.433594 5.53125 2.882812 3.347656 4.242187 7.742187 3.757812 12.132812zm0 0" fill="#fac176" data-original="#FAC176" class="active-path" style="fill:#CBB292" data-old_color="#fac176"></path><path d="m256.007812 435.707031v51.199219c-.027343 9.414062-7.652343 17.039062-17.066406 17.066406h-42.667968c-9.414063-.027344-17.039063-7.652344-17.066407-17.066406v-59.734375c-.441406-9.179687 3.011719-18.121094 9.511719-24.621094s15.441406-9.953125 24.621094-9.511719c11.328125-.035156 22.199218 4.449219 30.207031 12.460938 8.011719 8.007812 12.496094 18.878906 12.460937 30.207031zm0 0" fill="#f5efca" data-original="#F5EFCA" class="" style="fill:#F6F4E8" data-old_color="#f5efca"></path><path d="m179.207031 434.769531v43.605469c-.027343 9.414062-7.652343 17.035156-17.066406 17.066406h-34.132813c-9.414062-.03125-17.039062-7.652344-17.066406-17.066406v-51.203125c-.394531-8.171875 2.679688-16.128906 8.464844-21.914063 5.785156-5.785156 13.742188-8.859374 21.914062-8.464843 10.0625 0 19.714844 4.003906 26.824219 11.125 7.105469 7.125 11.089844 16.785156 11.0625 26.851562zm0 0" fill="#f5efca" data-original="#F5EFCA" class="" style="fill:#F6F4E8" data-old_color="#f5efca"></path><path d="m110.941406 433.828125v36.011719c-.027344 9.414062-7.652344 17.039062-17.066406 17.066406h-25.601562c-9.414063-.027344-17.039063-7.652344-17.066407-17.066406v-42.667969c-.339843-7.136719 2.347657-14.085937 7.398438-19.136719 5.054687-5.054687 12.003906-7.742187 19.140625-7.402344 18.328125.011719 33.183594 14.867188 33.195312 33.195313zm0 0" fill="#f9eab0" data-original="#F9EAB0" class="" style="fill:#F8F4DB" data-old_color="#f9eab0"></path><path d="m51.207031 434.425781v30.976563c.171875 2.257812-1.5 4.234375-3.753906 4.4375h-13.3125c-9.414063-.027344-17.039063-7.652344-17.066406-17.066406v-22.785157c-.484375-4.390625.875-8.78125 3.757812-12.132812 2.878907-3.347657 7.019531-5.351563 11.429688-5.53125 5.210937.0625 10.121093 2.441406 13.398437 6.488281 3.632813 4.386719 5.597656 9.917969 5.546875 15.613281zm0 0" fill="#f9eab0" data-original="#F9EAB0" class="" style="fill:#F8F4DB" data-old_color="#f9eab0"></path><path d="m332.808594 427.171875v59.734375c-.027344 9.414062-7.652344 17.039062-17.066406 17.066406h-42.667969c-9.414063-.027344-17.039063-7.652344-17.066407-17.066406v-51.199219c-.035156-11.328125 4.449219-22.199219 12.457032-30.207031 8.011718-8.011719 18.882812-12.496094 30.210937-12.460938 9.179688-.441406 18.121094 3.011719 24.621094 9.511719s9.953125 15.441407 9.511719 24.621094zm0 0" fill="#f5efca" data-original="#F5EFCA" class="" style="fill:#F6F4E8" data-old_color="#f5efca"></path><path d="m401.074219 427.171875v51.203125c-.027344 9.414062-7.652344 17.035156-17.066407 17.066406h-34.132812c-9.414062-.03125-17.039062-7.652344-17.066406-17.066406v-43.605469c-.027344-10.066406 3.953125-19.726562 11.0625-26.851562 7.109375-7.121094 16.761718-11.125 26.824218-11.125 8.171876-.394531 16.128907 2.679687 21.914063 8.464843 5.785156 5.785157 8.859375 13.742188 8.464844 21.914063zm0 0" fill="#f5efca" data-original="#F5EFCA" class="" style="fill:#F6F4E8" data-old_color="#f5efca"></path><path d="m460.808594 427.171875v42.667969c-.027344 9.414062-7.652344 17.039062-17.066406 17.066406h-25.601563c-9.414063-.027344-17.039063-7.652344-17.066406-17.066406v-36.011719c.007812-18.328125 14.867187-33.183594 33.195312-33.195313 7.136719-.339843 14.085938 2.347657 19.136719 7.402344 5.054688 5.050782 7.742188 12 7.402344 19.136719zm0 0" fill="#f9eab0" data-original="#F9EAB0" class="" style="fill:#F8F4DB" data-old_color="#f9eab0"></path><path d="m494.941406 429.988281v22.785157c-.027344 9.414062-7.652344 17.039062-17.066406 17.066406h-13.3125c-2.253906-.203125-3.925781-2.179688-3.753906-4.4375v-30.976563c-.050782-5.695312 1.914062-11.226562 5.546875-15.613281 3.277343-4.046875 8.1875-6.425781 13.394531-6.488281 4.414062.179687 8.554688 2.183593 11.433594 5.53125 2.882812 3.351562 4.242187 7.742187 3.757812 12.132812zm0 0" fill="#f9eab0" data-original="#F9EAB0" class="" style="fill:#F8F4DB" data-old_color="#f9eab0"></path></g> </svg>