<?xml version="1.0"?>
<svg xmlns="http://www.w3.org/2000/svg" height="512px" viewBox="0 -39 512.01744 512" width="512px" class=""><g><path d="m502.453125 336.449219v90.019531c0 4.714844-3.820313 8.535156-8.535156 8.535156h-477.867188c-4.710937 0-8.53125-3.820312-8.53125-8.535156v-89.601562l39.421875-8.316407 1.964844-.214843h106.664062l1.878907.171874 46.589843 8.53125c34.488282 5.476563 69.628907 5.449219 104.109376-.085937l46.769531-8.53125 1.1875-.113281h107.160156l1.640625.171875zm0 0" fill="#fb7b76" data-original="#FB7B76"/><path d="m179.207031 46.222656c-.027343 7.332032-1.058593 14.625-3.070312 21.675782-.261719 1.011718-.574219 2.007812-.9375 2.988281-.4375 1.652343-.980469 3.277343-1.621094 4.863281-2.234375 5.488281-4.886719 10.792969-7.9375 15.871094-1.707031 2.902344-3.5 5.886718-5.035156 8.960937-.851563 1.707031-1.707031 3.414063-2.472657 5.203125-18.347656 3.667969-37.019531 5.4375-55.722656 5.292969-18.707031.144531-37.378906-1.625-55.722656-5.292969-.769531-1.789062-1.621094-3.496094-2.476562-5.203125-4.8125-8.015625-9.140626-16.304687-12.96875-24.832031-.941407-2.476562-1.792969-5.121094-2.5625-7.851562-5.203126-18.859376-4.777344-41.386719 9.300781-55.46875 18.359375-16.53125 46.292969-16.347657 64.429687.429687l.082032-.085937c4.371093-4.09375 9.503906-7.285157 15.105468-9.386719h.085938c16.753906-6.742188 35.894531-3.21875 49.152344 9.042969 8.484374 9.152343 12.945312 21.328124 12.371093 33.792968zm0 0" fill="#f9eab0" data-original="#F9EAB0" class="active-path" style="fill:#F8F4DB" data-old_color="#f9eab0"/><path d="m332.808594 46.222656c-.027344 7.332032-1.0625 14.625-3.070313 21.675782-.261719 1.011718-.578125 2.007812-.941406 2.988281-.4375 1.652343-.976563 3.277343-1.621094 4.863281-2.230469 5.488281-4.882812 10.792969-7.933593 15.871094-1.707032 2.902344-3.5 5.886718-5.035157 8.960937-.855469 1.707031-1.707031 3.414063-2.476562 5.203125-18.34375 3.667969-37.015625 5.4375-55.722657 5.292969-18.707031.144531-37.378906-1.625-55.722656-5.292969-.765625-1.789062-1.621094-3.496094-2.472656-5.203125-1.539062-3.074219-3.328125-6.058593-5.035156-8.960937-3.050782-5.078125-5.703125-10.382813-7.9375-15.871094-.640625-1.585938-1.183594-3.210938-1.621094-4.863281-.363281-.980469-.675781-1.976563-.9375-2.988281-2.011719-7.050782-3.046875-14.34375-3.074219-21.675782-.570312-12.464844 3.886719-24.640625 12.375-33.792968 18.355469-16.53125 46.289063-16.347657 64.425781.429687l.085938-.085937c4.367188-4.09375 9.5-7.285157 15.105469-9.386719h.085937c16.753906-6.742188 35.894532-3.21875 49.148438 9.042969 8.488281 9.152343 12.945312 21.328124 12.375 33.792968zm0 0" fill="#f9eab0" data-original="#F9EAB0" class="active-path" style="fill:#F8F4DB" data-old_color="#f9eab0"/><path d="m483.335938 67.898438c-.765626 2.730468-1.621094 5.375-2.558594 7.851562-3.828125 8.527344-8.160156 16.816406-12.972656 24.832031-.851563 1.707031-1.707032 3.414063-2.472657 5.203125-18.34375 3.667969-37.015625 5.4375-55.722656 5.292969-18.707031.144531-37.378906-1.625-55.722656-5.292969-.769531-1.789062-1.621094-3.496094-2.476563-5.203125-1.535156-3.074219-3.328125-6.058593-5.035156-8.960937-3.050781-5.078125-5.703125-10.382813-7.933594-15.871094-.644531-1.585938-1.183594-3.210938-1.621094-4.863281-.363281-.980469-.679687-1.976563-.941406-2.988281-2.007812-7.050782-3.042968-14.34375-3.070312-21.675782-.570313-12.464844 3.886718-24.640625 12.375-33.792968 18.355468-16.53125 46.289062-16.347657 64.425781.429687l.085937-.085937c4.367188-4.09375 9.5-7.285157 15.101563-9.386719h.085937c16.753907-6.742188 35.894532-3.21875 49.152344 9.042969 14.082032 14.082031 14.507813 36.609374 9.300782 55.46875zm0 0" fill="#f9eab0" data-original="#F9EAB0" class="active-path" style="fill:#F8F4DB" data-old_color="#f9eab0"/><path d="m134.835938 48.015625c-.746094.238281-1.523438.351563-2.304688.339844-3.804688-.039063-7.132812-2.570313-8.191406-6.226563-4.492188-11.300781-11.84375-21.242187-21.332032-28.84375l-.515624-.511718c4.371093-4.09375 9.503906-7.285157 15.105468-9.386719h.085938c10.441406 9.261719 18.394531 21 23.125 34.132812.601562 2.183594.308594 4.515625-.808594 6.488281-1.121094 1.96875-2.980469 3.410157-5.164062 4.007813zm0 0" fill="#e4c05c" data-original="#E4C05C" class="" style="fill:#CBB292" data-old_color="#e4c05c"/><path d="m288.433594 48.015625c-.742188.238281-1.519532.351563-2.300782.339844-3.808593-.039063-7.136718-2.570313-8.195312-6.226563-4.488281-11.300781-11.839844-21.242187-21.332031-28.84375l-.511719-.511718c4.367188-4.09375 9.5-7.285157 15.105469-9.386719h.085937c10.441406 9.261719 18.390625 21 23.125 34.132812.601563 2.183594.308594 4.515625-.8125 6.488281-1.121094 1.96875-2.976562 3.410157-5.164062 4.007813zm0 0" fill="#e4c05c" data-original="#E4C05C" class="" style="fill:#CBB292" data-old_color="#e4c05c"/><path d="m442.035156 48.015625c-.742187.238281-1.523437.351563-2.304687.339844-3.804688-.039063-7.132813-2.570313-8.191407-6.226563-4.492187-11.300781-11.84375-21.242187-21.332031-28.84375l-.511719-.511718c4.367188-4.09375 9.5-7.285157 15.101563-9.386719h.085937c10.441407 9.261719 18.394532 21 23.125 34.132812.601563 2.183594.3125 4.515625-.808593 6.488281-1.121094 1.96875-2.980469 3.410157-5.164063 4.007813zm0 0" fill="#e4c05c" data-original="#E4C05C" class="" style="fill:#CBB292" data-old_color="#e4c05c"/><g fill="#c03a2b"><path d="m256.007812 239.058594c-2.261718 0-4.433593-.898438-6.03125-2.5l-25.601562-25.597656c-2.21875-2.144532-3.105469-5.316407-2.328125-8.300782.78125-2.984375 3.113281-5.3125 6.097656-6.09375 2.980469-.78125 6.15625.109375 8.296875 2.328125l11.035156 11.03125v-64.734375c0-4.710937 3.820313-8.53125 8.53125-8.53125 4.714844 0 8.535157 3.820313 8.535157 8.53125v85.335938c0 4.710937-3.820313 8.53125-8.535157 8.53125zm0 0" data-original="#C03A2B"/><path d="m256.007812 239.058594c-3.449218 0-6.5625-2.078125-7.882812-5.265625s-.589844-6.859375 1.851562-9.300781l25.597657-25.597657c2.144531-2.21875 5.316406-3.109375 8.300781-2.328125s5.3125 3.109375 6.09375 6.09375-.109375 6.15625-2.328125 8.300782l-25.597656 25.597656c-1.601563 1.601562-3.769531 2.5-6.035157 2.5zm0 0" data-original="#C03A2B"/><path d="m102.410156 239.058594c-2.265625 0-4.433594-.898438-6.035156-2.5l-25.597656-25.597656c-2.21875-2.144532-3.109375-5.316407-2.328125-8.300782s3.109375-5.3125 6.09375-6.09375 6.15625.109375 8.296875 2.328125l11.035156 11.03125v-64.734375c0-4.710937 3.820312-8.53125 8.535156-8.53125 4.710938 0 8.53125 3.820313 8.53125 8.53125v85.335938c0 4.710937-3.820312 8.53125-8.53125 8.53125zm0 0" data-original="#C03A2B"/><path d="m102.410156 239.058594c-3.453125 0-6.5625-2.078125-7.882812-5.265625-1.320313-3.1875-.589844-6.859375 1.847656-9.300781l25.601562-25.597657c2.140626-2.21875 5.3125-3.109375 8.296876-2.328125 2.984374.78125 5.3125 3.109375 6.09375 6.09375s-.105469 6.15625-2.324219 8.300782l-25.601563 25.597656c-1.597656 1.601562-3.769531 2.5-6.03125 2.5zm0 0" data-original="#C03A2B"/><path d="m409.609375 239.058594c-2.261719 0-4.433594-.898438-6.035156-2.5l-25.597657-25.597656c-2.21875-2.144532-3.109374-5.316407-2.328124-8.300782s3.109374-5.3125 6.09375-6.09375c2.984374-.78125 6.15625.109375 8.300781 2.328125l11.03125 11.03125v-64.734375c0-4.710937 3.820312-8.53125 8.535156-8.53125 4.710937 0 8.53125 3.820313 8.53125 8.53125v85.335938c0 4.710937-3.820313 8.53125-8.53125 8.53125zm0 0" data-original="#C03A2B"/><path d="m409.609375 239.058594c-3.453125 0-6.5625-2.078125-7.882813-5.265625-1.320312-3.1875-.589843-6.859375 1.847657-9.300781l25.601562-25.597657c2.140625-2.21875 5.316407-3.109375 8.296875-2.328125 2.984375.78125 5.316406 3.109375 6.097656 6.09375s-.109374 6.15625-2.328124 8.300782l-25.601563 25.597656c-1.597656 1.601562-3.769531 2.5-6.03125 2.5zm0 0" data-original="#C03A2B"/></g><path d="m511.839844 334.734375c-.9375 4.3125-5.007813 7.199219-9.386719 6.65625-.257813 0-.515625-.085937-.769531-.085937l-39.425782-8.359376h-105.386718l-45.824219 8.359376c-18.222656 2.964843-36.660156 4.449218-55.125 4.4375-18.347656-.003907-36.664063-1.457032-54.78125-4.351563l-45.996094-8.445313h-105.386719l-39.421874 8.359376c-.929688.199218-1.882813.226562-2.816407.085937-3.632812-.390625-6.59375-3.082031-7.339843-6.65625-.953126-4.609375 1.972656-9.132813 6.570312-10.152344l.769531-.171875 39.59375-8.363281c.59375-.097656 1.191407-.15625 1.792969-.171875h107.007812c.515626-.027344 1.035157.03125 1.535157.171875l46.589843 8.535156c34.488282 5.476563 69.628907 5.445313 104.109376-.085937l46.421874-8.449219c.496094-.140625 1.015626-.199219 1.535157-.171875h107.007812c.601563.015625 1.199219.074219 1.792969.171875l37.546875 7.9375 2.8125.597656c4.597656 1.019531 7.523437 5.542969 6.574219 10.152344zm0 0" fill="#df4d60" data-original="#DF4D60" class=""/><path d="m153.523438 314.511719v2.902343c.25 6.273438-.089844 12.5625-1.023438 18.773438-1.964844 11.859375-3.15625 23.890625-4.777344 35.839844-1.195312 8.445312-4.4375 20.050781-14.59375 20.308594-13.996094.339843-13.824218-17.238282-15.445312-27.5625-.085938-.597657-.171875-1.195313-.257813-1.707032-1.449219-7.167968-2.300781-14.421875-3.242187-21.589844-1.707032-12.886718-7.335938-15.53125-11.773438-16.042968-4.4375.511718-10.070312 3.15625-11.777344 16.042968-.9375 7.167969-1.792968 14.421876-3.242187 21.589844-.085937.511719-.171875 1.109375-.257813 1.707032-1.621093 10.324218-1.449218 27.902343-15.445312 27.5625-10.152344-.257813-13.394531-11.863282-14.589844-20.308594-1.621094-11.949219-2.816406-23.980469-4.78125-35.839844-.929687-6.210938-1.273437-12.5-1.023437-18.773438v-2.902343c0-1.367188.085937-2.644531.171875-3.925781 2.625-26.164063 24.648437-46.085938 50.945312-46.085938s48.316406 19.921875 50.941406 46.085938c.085938 1.28125.171876 2.558593.171876 3.925781zm0 0" fill="#f9eab0" data-original="#F9EAB0" class="active-path" style="fill:#F8F4DB" data-old_color="#f9eab0"/><path d="m460.722656 314.511719v2.902343c.25 6.273438-.089844 12.5625-1.023437 18.773438-1.960938 11.859375-3.15625 23.890625-4.777344 35.839844-1.195313 8.445312-4.4375 20.050781-14.59375 20.308594-13.992187.339843-13.824219-17.238282-15.445313-27.5625-.085937-.597657-.171874-1.195313-.253906-1.707032-1.453125-7.167968-2.304687-14.421875-3.246094-21.589844-1.703124-12.886718-7.335937-15.53125-11.773437-16.042968-4.4375.511718-10.070313 3.15625-11.777344 16.042968-.9375 7.167969-1.792969 14.421876-3.242187 21.589844-.085938.511719-.171875 1.109375-.253906 1.707032-1.625 10.324218-1.453126 27.902343-15.445313 27.5625-10.15625-.257813-13.398437-11.863282-14.59375-20.308594-1.621094-11.949219-2.816406-23.980469-4.777344-35.839844-.933593-6.210938-1.277343-12.5-1.027343-18.773438v-2.902343c0-1.367188.085937-2.644531.171874-3.925781 2.628907-26.164063 24.648438-46.085938 50.945313-46.085938s48.316406 19.921875 50.941406 46.085938c.085938 1.28125.171875 2.558593.171875 3.925781zm0 0" fill="#f9eab0" data-original="#F9EAB0" class="active-path" style="fill:#F8F4DB" data-old_color="#f9eab0"/></g> </svg>
