<svg xmlns="http://www.w3.org/2000/svg" height="512" viewBox="-27 0 512 512.01485" width="512" class=""><g><g><path d="m299.308594 319.574219-17.746094 33.542969v8.828124c-13.769531 6.886719-31.425781 26.484376-52.964844 26.484376-21.539062 0-39.195312-19.597657-52.964844-26.484376v-8.828124l-17.742187-33.542969c3.441406-8.917969 6.355469-18.804688 7.855469-24.1875 27.011718 22.421875 62.851562-4.0625 62.851562-4.0625s35.839844 26.484375 62.851563 4.0625c1.5 5.382812 4.414062 15.269531 7.859375 24.1875zm0 0" fill="#fdd7ad" data-original="#FDD7AD" class=""></path><path d="m281.476562 341.199219-7.769531 41.578125c-.632812.808594-.972656 1.800781-.972656 2.828125l-26.480469 126.410156h-35.3125l-26.480468-126.410156c0-1.027344-.339844-2.019531-.972657-2.828125l-7.769531-41.578125c16.453125 8.058593 34.5625 12.140625 52.878906 11.917969 18.316406.222656 36.425782-3.859376 52.878906-11.917969zm0 0" fill="#e6e7e8" data-original="#E6E7E8"></path><path d="m314.050781 328.578125-59.324219 133.5625c-.828124 1.953125-2.929687 3.039063-5.003906 2.585937-2.074218-.453124-3.53125-2.320312-3.46875-4.441406v-74.679687c-.003906-1.027344.339844-2.019531.96875-2.828125l34.253906-41.578125h.085938l17.746094-21.625 3.53125-4.238281c1.03125-1.234376 2.65625-1.808594 4.238281-1.496094s2.863281 1.460937 3.351563 2.996094zm0 0" fill="#71c285" data-original="#D7D7FF" class="active-path" style="fill:#9CC3D8" data-old_color="#71c285"></path><path d="m320.757812 207.550781c-3.707031 3.265625-9.445312 33.464844-16.773437 38.496094-19.339844 12.300781-43.769531 13.34375-64.085937 2.738281-7.148438-3.402344-15.449219-3.402344-22.601563 0-20.316406 10.605469-44.746094 9.5625-64.085937-2.738281-7.328126-5.03125-13.066407-35.230469-16.773438-38.496094.355469-6.355469.792969-12.800781 1.5-19.421875v-.085937c12.800781-14.390625 11.210938-64.265625 11.210938-90.925781 0 0 98.78125 16.863281 167.726562-23.570313 1.585938-.882813 3.265625-1.851563 4.855469-2.910156 0 0 0 12.796875 1.851562 32.574219.066407.070312.101563.167968.089844.261718 2.558594 12.625-8.652344 52.347656-6.796875 65.679688 1.941406 13.0625 3.265625 26.039062 3.882812 38.398437zm0 0" fill="#fdd7ad" data-original="#FDD7AD" class=""></path><path d="m210.941406 460.285156v51.730469h-202.148437c-2.488281-.011719-4.855469-1.074219-6.519531-2.921875-1.664063-1.851562-2.46875-4.316406-2.2226568-6.789062 2.9140628-26.835938 12.8007808-101.164063 34.3398438-122.703126 17.390625-17.390624 72.828125-38.578124 108.757813-51.023437zm0 0" fill="#7ed09e" data-original="#C7EBFF" class="" style="fill:#C7EBFF" data-old_color="#7ed09e"></path><path d="m314.050781 328.578125c35.925781 12.445313 91.363281 33.632813 108.753907 51.023437 21.539062 21.539063 31.425781 95.867188 34.339843 122.703126.25 2.472656-.558593 4.9375-2.222656 6.789062-1.664063 1.847656-4.03125 2.910156-6.515625 2.921875h-202.152344v-51.730469zm0 0" fill="#7ed09e" data-original="#C7EBFF" class="" style="fill:#C7EBFF" data-old_color="#7ed09e"></path><path d="m210.941406 385.605469v74.679687c.0625 2.121094-1.394531 3.988282-3.46875 4.441406-2.070312.453126-4.175781-.632812-5.003906-2.585937l-59.320312-133.5625 3.617187-11.742187c.488281-1.535157 1.773437-2.683594 3.351563-2.996094 1.582031-.3125 3.207031.261718 4.242187 1.496094l3.53125 4.238281 17.742187 21.625h.085938l34.253906 41.578125c.628906.808594.972656 1.800781.96875 2.828125zm0 0" fill="#71c285" data-original="#D7D7FF" class="active-path" style="fill:#9CC3D8" data-old_color="#71c285"></path><path d="m140.320312 441.394531c0 14.625-11.855468 26.480469-26.480468 26.480469s-26.484375-11.855469-26.484375-26.480469 11.859375-26.484375 26.484375-26.484375 26.480468 11.859375 26.480468 26.484375zm0 0" fill="#547580" data-original="#547580" class=""></path><g fill="#7f8c8d"><path d="m100.695312 427.269531c-2.777343 0-5.394531-1.308593-7.0625-3.53125-16.90625-21.148437-23.042968-48.945312-16.613281-75.246093.71875-3.105469 3.0625-5.582032 6.125-6.480469 3.058594-.894531 6.367188-.066407 8.648438 2.164062 2.277343 2.230469 3.179687 5.515625 2.351562 8.597657-5.074219 21.140624-.054687 43.441406 13.585938 60.371093 2.007812 2.675781 2.328125 6.253907.832031 9.246094-1.492188 2.992187-4.550781 4.878906-7.894531 4.878906zm0 0" data-original="#7F8C8D" class=""></path><path d="m356.324219 397.257812c-4.773438 0-8.683594-3.792968-8.828125-8.5625-.90625-15.492187-3.996094-30.78125-9.171875-45.410156-.996094-2.996094-.320313-6.296875 1.777343-8.660156 2.097657-2.359375 5.292969-3.421875 8.386719-2.789062 3.09375.636718 5.613281 2.875 6.609375 5.871093 5.75 16.25 9.140625 33.242188 10.0625 50.457031.070313 2.339844-.789062 4.613282-2.398437 6.320313-1.605469 1.707031-3.820313 2.703125-6.164063 2.773437zm0 0" data-original="#7F8C8D" class=""></path><path d="m313.34375 494.359375c-1.0625 0-2.113281-.191406-3.109375-.566406-18.023437-6.761719-27.648437-16.320313-28.609375-28.40625-1.359375-17.203125 16.09375-36.273438 51.890625-56.644531 2.738281-1.5625 6.105469-1.542969 8.828125.050781 2.71875 1.59375 4.386719 4.515625 4.367188 7.671875-.019532 3.152344-1.71875 6.058594-4.457032 7.617187-32.617187 18.539063-43.574218 33.105469-43.027344 39.910157.363282 4.527343 6.472657 9.242187 17.214844 13.242187 4.042969 1.46875 6.441406 5.636719 5.675782 9.871094-.765626 4.230469-4.472657 7.296875-8.773438 7.253906zm0 0" data-original="#7F8C8D" class=""></path><path d="m399.851562 494.359375c-4.261718-.003906-7.914062-3.054687-8.675781-7.253906-.761719-4.195313 1.585938-8.335938 5.578125-9.835938 10.742188-4.035156 16.851563-8.75 17.214844-13.242187.546875-6.804688-10.40625-21.335938-43.027344-39.910156-2.738281-1.558594-4.4375-4.464844-4.457031-7.617188-.019531-3.15625 1.648437-6.078125 4.371094-7.671875 2.71875-1.59375 6.085937-1.613281 8.828125-.050781 35.792968 20.371094 53.246094 39.441406 51.886718 56.644531-.960937 12.085937-10.59375 21.644531-28.609374 28.40625-.996094.363281-2.046876.542969-3.109376.53125zm0 0" data-original="#7F8C8D" class=""></path></g><path d="m352.183594 388.429688h8.828125c9.75 0 17.65625 7.902343 17.65625 17.652343 0 9.753907-7.90625 17.65625-17.65625 17.65625h-8.828125c-9.75 0-17.65625-7.902343-17.65625-17.65625 0-9.75 7.90625-17.652343 17.65625-17.652343zm0 0" fill="#547580" data-original="#547580" class=""></path><path d="m202.113281 185.394531c0 4.875-3.949219 8.828125-8.824219 8.828125s-8.828124-3.953125-8.828124-8.828125 3.953124-8.828125 8.828124-8.828125 8.824219 3.953125 8.824219 8.828125zm0 0" fill="#2c2f38" data-original="#2C2F38"></path><path d="m272.734375 185.394531c0 4.875-3.949219 8.828125-8.824219 8.828125-4.878906 0-8.828125-3.953125-8.828125-8.828125s3.949219-8.828125 8.828125-8.828125c4.875 0 8.824219 3.953125 8.824219 8.828125zm0 0" fill="#2c2f38" data-original="#2C2F38"></path><path d="m202.496094 159.644531s-15.527344-12.210937-35.691406 7.125" fill="#805333" data-original="#805333"></path><path d="m166.804688 175.605469c-3.605469 0-6.851563-2.195313-8.195313-5.542969s-.511719-7.175781 2.09375-9.667969c20.304687-19.421875 39.726563-13.542969 47.238281-7.707031 3.863282 2.972656 4.585938 8.515625 1.609375 12.382812-2.972656 3.863282-8.515625 4.582032-12.378906 1.609376-1.128906-.792969-10.539063-6.671876-24.265625 6.46875-1.644531 1.574218-3.828125 2.453124-6.101562 2.457031zm0 0" fill="#805333" data-original="#805333"></path><path d="m255.082031 159.644531s15.535157-12.183593 35.6875 7.125" fill="#805333" data-original="#805333"></path><path d="m290.769531 175.605469c-2.273437-.003907-4.457031-.882813-6.097656-2.457031-14.476563-13.859376-24.066406-6.636719-24.144531-6.558594-3.839844 2.6875-9.105469 1.90625-12-1.777344-2.894532-3.683594-2.410156-8.984375 1.105468-12.082031 7.453126-5.84375 26.941407-11.757813 47.238282 7.707031 2.605468 2.492188 3.4375 6.320312 2.09375 9.667969-1.34375 3.347656-4.585938 5.542969-8.195313 5.542969zm0 0" fill="#805333" data-original="#805333"></path><path d="m252.433594 245.519531c-4.023438-.304687-7.371094-3.21875-8.226563-7.160156l-6.179687-20.171875c-1.890625-5.394531.210937-11.382812 5.058594-14.414062 2.355468-.945313 5.011718-.777344 7.226562.460937 2.21875 1.238281 3.753906 3.410156 4.1875 5.914063l6.175781 20.167968c1.894531 5.394532-.203125 11.382813-5.046875 14.417969-.992187.503906-2.085937.769531-3.195312.785156zm0 0" fill="#cbb292" data-original="#CBB292" class=""></path><path d="m204.761719 245.519531c-1.105469-.007812-2.195313-.265625-3.183594-.761719-4.84375-3.035156-6.941406-9.019531-5.050781-14.414062l6.179687-20.171875c.425781-2.503906 1.964844-4.675781 4.183594-5.914063 2.214844-1.238281 4.875-1.40625 7.230469-.457031 4.847656 3.03125 6.949218 9.015625 5.058594 14.414063l-6.1875 20.144531c-.859376 3.941406-4.207032 6.855469-8.230469 7.160156zm0 0" fill="#cbb292" data-original="#CBB292" class=""></path><path d="m113.839844 145.050781c-9.359375-29.746093-18.539063-75.472656 17.65625-111.667969 24.449218-24.453124 61.96875-33.808593 97.101562-33.367187l5.648438.085937c33.457031.53125 68.328125 10.152344 91.457031 33.28125 36.191406 36.195313 27.011719 81.921876 17.652344 111.667969l-26.480469 24.101563c-1.855469-13.332032-4.328125-26.570313-6.886719-39.195313.011719-.097656-.019531-.195312-.089843-.265625-1.851563-19.773437-1.851563-32.574218-1.851563-32.574218-1.589844 1.058593-3.265625 2.03125-4.855469 2.914062-41.121094 24.078125-89.570312 32.453125-136.386718 23.570312 0 26.660157-16.066407 50.050782-28.867188 64.441407zm0 0" fill="#805333" data-original="#805333"></path><path d="m350.066406 158.910156c.015625.648438-.015625 1.296875-.089844 1.941406l-4.855468 44.140626c-.988282 8.949218-8.558594 15.722656-17.566406 15.710937h-6.53125c0-4.234375-.089844-8.648437-.265626-13.152344-.617187-12.359375-1.941406-25.335937-3.882812-38.398437v-12.269532c-.007812-4.148437 1.636719-8.125 4.566406-11.058593 2.933594-2.929688 6.910156-4.574219 11.058594-4.566407 3.945312-.015624 7.777344 1.324219 10.855469 3.792969 4.21875 3.371094 6.683593 8.464844 6.710937 13.859375zm0 0" fill="#cbb292" data-original="#CBB292" class=""></path><path d="m140.320312 156.882812v12.269532c-.96875 6.355468-1.765624 12.621094-2.382812 18.890625v.085937c-.707031 6.621094-1.144531 13.066406-1.5 19.421875-.175781 4.503907-.265625 8.917969-.265625 13.152344h-6.53125c-9.007813.011719-16.574219-6.761719-17.566406-15.710937l-4.855469-44.140626c-.074219-.644531-.101562-1.292968-.089844-1.941406.027344-5.394531 2.492188-10.488281 6.710938-13.859375 3.078125-2.46875 6.910156-3.808593 10.855468-3.792969 4.148438-.007812 8.125 1.636719 11.058594 4.566407 2.929688 2.933593 4.574219 6.910156 4.566406 11.058593zm0 0" fill="#cbb292" data-original="#CBB292" class=""></path><path d="m321.023438 220.703125c.160156 11.902344-1.234376 23.773437-4.148438 35.3125-4.171875 15.449219-13.0625 29.210937-25.425781 39.371094-18.101563 13.84375-40.074219 21.683593-62.851563 22.421875-22.777344-.738282-44.75-8.578125-62.851562-22.421875-12.363282-10.160157-21.25-23.921875-25.425782-39.371094-2.914062-11.539063-4.308593-23.410156-4.148437-35.3125 0-4.234375.089844-8.648437.265625-13.152344 5.332031 4.652344 10.929688 8.984375 16.773438 12.976563 19.339843 12.296875 43.769531 13.339844 64.085937 2.738281 7.148437-3.414063 15.453125-3.414063 22.601563 0 20.316406 10.601563 44.746093 9.558594 64.085937-2.738281 5.84375-3.992188 11.441406-8.324219 16.773437-12.976563.175782 4.503907.265626 8.917969.265626 13.152344zm0 0" fill="#65ddb9" data-original="#D7D7FF" class="active-path" style="fill:#9CC3D8" data-old_color="#65ddb9"></path></g></g> </svg>