<?xml version="1.0"?>
<svg xmlns="http://www.w3.org/2000/svg" height="512px" viewBox="0 0 512 512.10628" width="512px" class=""><g><path d="m362.445312 249.34375c-5.792968 12.191406-12.277343 24.039062-19.421874 35.488281-6.917969 12.371094-11.441407 25.9375-13.328126 39.988281-1.375 15.121094-3.914062 30.113282-7.59375 44.84375-2.914062 10.769532-7.679687 27.628907-21.363281 27.628907-2.933593-.230469-5.597656-1.792969-7.238281-4.234375-9.445312-11.300782-15.976562-43.078125-19.597656-68.945313-2.558594-18.359375-11.03125-22.070312-17.832032-22.863281-3.203124.242188-6.269531 1.410156-8.824218 3.355469-5.457032 5.0625-8.691406 12.074219-9.003906 19.507812-4.503907 32.042969-13.417969 73.179688-26.835938 73.179688-3.898438.023437-7.644531-1.5-10.417969-4.234375-5.578125-6.742188-9.34375-14.792969-10.945312-23.394532-3.679688-14.730468-6.21875-29.722656-7.59375-44.84375-1.886719-14.050781-6.410157-27.617187-13.328125-39.988281-7.144532-11.449219-13.628906-23.296875-19.421875-35.488281-11.300781-28.867188-13.945313-67.441406 10.0625-90.480469 10.457031-9.722656 23.832031-15.710937 38.046875-17.039062 17.253906-2.027344 34.683594 1.863281 49.4375 11.035156 3.160156 1.898437 6.117187 4.117187 8.824218 6.621094 11.335938-10.019531 25.550782-16.199219 40.609376-17.65625 20.171874-2.816407 40.554687 3.417969 55.703124 17.039062 24.007813 23.039063 21.359376 61.613281 10.0625 90.480469zm0 0" fill="#e4c05c" data-original="#E4C05C" class=""/><path d="m344.789062 249.34375c-5.792968 12.191406-12.277343 24.039062-19.421874 35.488281-6.917969 12.371094-11.441407 25.9375-13.328126 39.988281-1.375 15.121094-3.914062 30.113282-7.59375 44.84375-1.601562 8.601563-5.367187 16.652344-10.945312 23.394532-9.445312-11.300782-15.976562-43.078125-19.597656-68.945313-2.558594-18.359375-11.03125-22.070312-17.832032-22.863281-3.203124.242188-6.269531 1.410156-8.824218 3.355469-2.558594-1.945313-5.625-3.113281-8.828125-3.355469-6.796875.792969-15.273438 4.503906-17.832031 22.863281-3.621094 25.867188-10.152344 57.644531-19.597657 68.945313-5.578125-6.742188-9.34375-14.792969-10.945312-23.394532-3.679688-14.730468-6.21875-29.722656-7.59375-44.84375-1.886719-14.050781-6.410157-27.617187-13.328125-39.988281-7.144532-11.449219-13.628906-23.296875-19.421875-35.488281-11.300781-28.867188-13.945313-67.441406 10.0625-90.480469 10.457031-9.722656 23.832031-15.710937 38.046875-17.039062 15.058594 1.457031 29.273437 7.636719 40.609375 17.65625 2.707031-2.503907 5.664062-4.722657 8.828125-6.621094 3.160156 1.898437 6.117187 4.117187 8.824218 6.621094 11.335938-10.019531 25.550782-16.199219 40.609376-17.65625 14.214843 1.328125 27.589843 7.316406 38.046874 17.039062 24.011719 23.039063 21.363282 61.613281 10.0625 90.480469zm0 0" fill="#f9eab0" data-original="#F9EAB0"/><path d="m281.855469 209.445312c-3.917969 0-7.371094-2.585937-8.472657-6.347656-5.382812-18.371094-27.972656-37.472656-34.964843-43.617187-6.753907-5.933594-10.277344-9.003907-5.6875-10.65625 3.972656-1.429688 8.203125.140625 14.515625 4.035156 4.90625 3.027344 34.992187 17.707031 43.085937 45.265625.660157 2.25.398438 4.667969-.726562 6.722656-1.125 2.054688-3.019531 3.578125-5.265625 4.234375-.808594.238281-1.640625.363281-2.484375.363281zm0 0" fill="#e4c05c" data-original="#E4C05C" class=""/><path d="m176.234375 226.964844c-4.164063-.003906-7.761719-2.921875-8.625-7-4.457031-20.105469 4.621094-40.785156 22.441406-51.109375 4.273438-2.347657 9.640625-.789063 11.988281 3.484375 2.347657 4.273437.785157 9.640625-3.488281 11.988281-10.980469 6.601563-16.488281 19.503906-13.664062 32 .550781 2.609375-.105469 5.324219-1.785157 7.390625-1.679687 2.070312-4.203124 3.269531-6.867187 3.265625zm0 0" fill="#fff" data-original="#FFF"/><path d="m459.105469 36.597656v69.386719c-.027344 9.738281-7.914063 17.625-17.652344 17.65625h-61.792969c-6.933594-.011719-13.214844-4.070313-16.070312-10.386719-2.851563-6.316406-1.746094-13.714844 2.828125-18.921875l16.417969-18.804687 23.304687-26.65625 22.070313-25.160156c5.972656-6.875 16.21875-8.023438 23.570312-2.648438 4.765625 3.726562 7.484375 9.488281 7.324219 15.535156zm0 0" fill="#c03a2b" data-original="#C03A2B" class="active-path" style="fill:#9CC3D8" data-old_color="#c03a2b"/><path d="m406.140625 48.871094-23.304687 26.65625c-42.109376-29.78125-93.375-43.753906-144.773438-39.457032-71.335938 5.851563-135.410156 45.9375-171.878906 107.527344s-40.8125 137.042969-11.644532 202.410156c3.820313 8.808594-.121093 19.054688-8.863281 23.027344-8.742187 3.976563-19.058593.207032-23.183593-8.464844-16.453126-36.429687-24.046876-76.238281-22.15625-116.167968 6.417968-129.960938 108.902343-234.644532 238.699218-243.820313 59.644532-4.042969 118.808594 13.054688 167.105469 48.289063zm0 0" fill="#e64c3c" data-original="#E64C3C" class="" data-old_color="#e64c3c" style="fill:#C7EBFF"/><path d="m145.726562 417.773438-16.417968 18.804687-23.304688 26.660156-22.070312 25.15625c-3.332032 3.832031-8.164063 6.023438-13.242188 6.003907-2.765625.007812-5.492187-.660157-7.945312-1.941407-6.066406-3.34375-9.800782-9.757812-9.707032-16.683593v-69.652344c.027344-9.738282 7.914063-17.625 17.652344-17.652344h61.792969c6.929687.007812 13.214844 4.070312 16.066406 10.382812 2.855469 6.316407 1.75 13.71875-2.824219 18.921876zm0 0" fill="#c03a2b" data-original="#C03A2B" class="active-path" style="fill:#9CC3D8" data-old_color="#c03a2b"/><path d="m511.808594 267.707031c-6.417969 129.957031-108.90625 234.644531-238.699219 243.816407-59.644531 4.042968-118.808594-13.050782-167.105469-48.285157l23.304688-26.660156c42.109375 29.78125 93.375 43.753906 144.773437 39.457031 71.335938-5.855468 135.402344-45.941406 171.875-107.53125 36.46875-61.585937 40.8125-137.035156 11.648438-202.402344-3.820313-8.8125.121093-19.058593 8.863281-23.03125 8.742188-3.972656 19.058594-.207031 23.179688 8.464844 16.457031 36.429688 24.050781 76.242188 22.160156 116.171875zm0 0" fill="#e64c3c" data-original="#E64C3C" class="" data-old_color="#e64c3c" style="fill:#C7EBFF"/></g> </svg>
