<svg xmlns="http://www.w3.org/2000/svg" height="512" viewBox="0 0 512.02476 512" width="512" class=""><g><path d="m215.417969 310.558594c1.527343-.117188 3.046875-.167969 4.539062-.1875 1.3125 0 2.644531 0 3.945313.0625 1.824218 0 3.6875 8.828125 5.453125 9.394531.082031 0 .203125.105469.285156.097656-15.398437.882813-31.691406 16.59375-35.839844 45.726563-8.925781 64-26.847656 146.359375-53.59375 146.359375-3.648437.011719-7.269531-.648438-10.679687-1.941407 22.863281-12.625 20.832031-86.15625 28.953125-144.417968.875-6.792969 2.496093-13.464844 4.835937-19.898438 1.675782-7.539062 4.082032-14.898437 7.179688-21.972656 2.398437-3.082031 5.320312-5.722656 8.632812-7.792969 5.507813-3.398437 29.773438-4.9375 36.289063-5.429687zm0 0" fill="#e4c05c" data-original="#E4C05C" class=""></path><path d="m375.636719 376.421875c-2.574219 27.070313-7.265625 53.902344-14.035157 80.242187-5.824218 21.625-15.269531 55.347657-42.722656 55.347657-2.457031-.007813-4.867187-.679688-6.976562-1.941407 19.421875-7.414062 3.089844-65.042968 8.121094-83.578124 7.238281-26.132813-5.84375-56.207032-2.761719-83.308594l17.65625-283.585938c0-13.054687 1.324219-31.089844-11.582031-33.101562-4.8125-.75 1.667968-25.945313-3.222657-26.21875 18.484375-1.097656 37.007813 1.238281 54.640625 6.886718zm0 0" fill="#e4c05c" data-original="#E4C05C" class=""></path><path d="m357.984375 376.421875c-2.578125 27.070313-7.269531 53.902344-14.035156 80.242187-5.035157 18.539063-12.625 45.992188-32.046875 53.40625-22.863282-12.625-38.488282-86.15625-46.609375-144.417968-5.207031-36.8125-22.15625-44.226563-35.664063-45.726563h-.175781c-2.953125.273438-5.863281.925781-8.652344 1.941407h-.085937c-1.433594-.535157-2.910156-.949219-4.414063-1.238282-1.429687-.3125-2.871093-.546875-4.324219-.703125h-.179687c-1.453125.148438-2.898437.382813-4.324219.703125-1.503906.277344-2.984375.691406-4.414062 1.238282h-.085938c-11.300781 3.972656-22.6875 14.652343-26.835937 43.785156-8.121094 58.261718-23.746094 131.792968-46.609375 144.417968-3.808594-1.484374-7.289063-3.707031-10.242188-6.53125-12.09375-11.390624-17.742187-32.046874-21.804687-46.875-7.40625-29.453124-12.484375-59.441406-15.183594-89.6875-3.773437-28.074218-12.820313-55.179687-26.660156-79.890624-12.796875-24.011719-28.863281-45.460938-38.929688-71.0625-22.597656-57.644532-27.894531-134.886719 20.21875-180.964844 21-19.519532 47.890625-31.503906 76.445313-34.074219 2.738281-.355469 5.472656-.53125 8.210937-.707031 33.457031 1.855468 66.382813 8.210937 90.304688 30.101562 2.824219-2.558594 5.738281.972656 8.828125-1.324218 3.089844 2.296874 6.003906 4.765624 8.828125 7.328124 25.167969-22.042968 57.136719-34.789062 90.570312-36.105468 4.890625.269531 9.746094.78125 14.566407 1.535156 12.910156 2.023438 22.4375 13.125 22.472656 26.191406zm0 0" fill="#f9eab0" data-original="#F9EAB0" class=""></path><path d="m512.023438 58.1875v161.277344c.011718 30.53125-12.875 59.640625-35.484376 80.15625l-84.570312 76.976562c-2.148438 1.953125-4.953125 3.027344-7.855469 3l-16.640625-32.554687-35.867187-40.820313c15.191406-13.867187-6.621094-43.988281-6.621094-64.554687l23.175781-108.695313c-32.921875-8.914062 33.214844-72.339844 4.96875-91.578125l30.984375-41.3828122 2.914063 2.2968752c36.207031 28.996094 79.242187 48.234375 124.996094 55.878906zm0 0" fill="#4fba6f" data-original="#4FBA6F" class="active-path" style="fill:#9CC3D8" data-old_color="#4fba6f"></path><path d="m291.511719 86.523438v132.941406c.03125 20.597656 8.710937 40.230468 23.921875 54.113281l68.679687 62.414063v43.605468c-2.871093-.015625-5.632812-1.085937-7.769531-3l-84.65625-76.976562c-22.609375-20.515625-35.496094-49.625-35.484375-80.15625v-161.277344c22.808594-3.765625 45.03125-10.472656 66.117187-19.953125 21.078126-9.414063 40.867188-21.488281 58.878907-35.925781l2.914062-2.2968752v43.9609372c-28.277343 19.253906-59.574219 33.632813-92.601562 42.550782zm0 0" fill="#7ed09e" data-original="#7ED09E" class="" style="fill:#C7EBFF" data-old_color="#7ed09e"></path><path d="m476.714844 86.523438v132.941406c.003906 20.585937-8.648438 40.222656-23.835938 54.113281l-68.765625 62.414063-35.3125-127.429688v-89.378906l35.3125-75.210938c28.285157 19.238282 59.582031 33.617188 92.601563 42.550782zm0 0" fill="#e6e7e8" data-original="#E6E7E8" class=""></path><path d="m384.113281 43.972656v292.019532l-68.679687-62.414063c-15.210938-13.882813-23.890625-33.515625-23.921875-54.113281v-132.941406c33.027343-8.917969 64.324219-23.296876 92.601562-42.550782zm0 0" fill="#fff" data-original="#FFF" class="" data-old_color="#fff" style="fill:#FFFFFF"></path><path d="m361.957031 247.183594c-4.683593 0-9.171875-1.859375-12.484375-5.171875l-26.480468-26.484375c-6.691407-6.925782-6.597657-17.9375.214843-24.746094 6.808594-6.8125 17.820313-6.90625 24.75-.214844l12.535157 12.535156 58.261718-72.882812c6.09375-7.613281 17.207032-8.847656 24.820313-2.753906 7.617187 6.09375 8.851562 17.207031 2.753906 24.824218l-70.617187 88.273438c-3.125 3.921875-7.769532 6.328125-12.773438 6.621094-.332031 0-.65625 0-.980469 0zm0 0" fill="#4fba6f" data-original="#4FBA6F" class="active-path" style="fill:#9CC3D8" data-old_color="#4fba6f"></path><path d="m194.230469 114.769531c0 43.878907-35.570313 79.449219-79.445313 79.449219-43.878906 0-79.449218-35.570312-79.449218-79.449219 0-43.875 35.570312-79.445312 79.449218-79.445312 43.875 0 79.445313 35.570312 79.445313 79.445312zm0 0" fill="#fff" data-original="#FFF" class="" data-old_color="#fff" style="fill:#FFFFFF"></path><path d="m221.816406 42.632812c-28.316406-24-63.289062-38.777343-100.234375-42.355468 35.308594-2.03125 81.0625 9.941406 107.960938 36.105468-2.691407 1.9375-5.269531 4.023438-7.726563 6.25zm0 0" fill="#e4c05c" data-original="#E4C05C" class=""></path></g> </svg>