<?xml version="1.0" encoding="UTF-8" standalone="no"?>
<!DOCTYPE svg PUBLIC "-//W3C//DTD SVG 1.1//EN" "http://www.w3.org/Graphics/SVG/1.1/DTD/svg11.dtd">
<svg version="1.1" xmlns="http://www.w3.org/2000/svg" xmlns:xlink="http://www.w3.org/1999/xlink" preserveAspectRatio="xMidYMid meet" viewBox="0 0 640 640" width="76" height="76"><defs><path d="M122.09 130.29C169.65 67.98 241.78 32.25 320 32.25C398.22 32.25 470.35 67.98 517.91 130.29C521.08 134.45 525.88 136.63 530.74 136.63C534.15 136.63 537.59 135.56 540.51 133.33C547.59 127.92 548.95 117.81 543.55 110.73C489.83 40.36 408.35 0 320 0C231.65 0 150.17 40.36 96.46 110.73C91.05 117.81 92.41 127.92 99.49 133.33C106.57 138.73 116.68 137.37 122.09 130.29Z" id="c45JFNnoBj"></path><path d="M541.75 269.69C569.52 269.69 592.11 247.1 592.11 219.34C592.11 191.57 569.52 168.98 541.75 168.98C513.98 168.98 491.39 191.57 491.39 219.34C491.39 247.1 513.98 269.69 541.75 269.69Z" id="a1eH47Qpus"></path><path d="M580.48 282.47C575.89 281.07 570.9 281.93 567.05 284.81C565.36 286.08 556.93 292.39 541.75 303.76C526.57 292.39 518.14 286.08 516.45 284.81C512.6 281.93 507.61 281.07 503.02 282.47C503.02 282.47 490.33 286.37 490.21 286.41C469.8 293.21 456.08 312.24 456.08 333.76C456.08 341.37 456.08 402.28 456.08 409.89C456.08 412.83 456.94 415.7 458.56 418.15C460.26 420.74 468.77 433.69 484.09 457.01C484.09 518.23 484.09 552.24 484.09 559.05C484.09 567.36 490.82 574.09 499.14 574.09C507.66 574.09 575.84 574.09 584.37 574.09C592.68 574.09 599.41 567.36 599.41 559.05C599.41 552.24 599.41 518.23 599.41 457.01C614.73 433.69 623.24 420.74 624.95 418.15C626.56 415.7 627.42 412.83 627.42 409.89C627.42 402.28 627.42 341.37 627.42 333.76C627.42 312.24 613.7 293.21 593.29 286.41C593.17 286.37 583.04 283.26 580.48 282.47Z" id="a2FMDnZsAu"></path><path d="M148.61 219.34C148.61 191.57 126.02 168.98 98.25 168.98C70.48 168.98 47.89 191.57 47.89 219.34C47.89 247.1 70.48 269.69 98.25 269.69C126.02 269.69 148.61 247.1 148.61 219.34Z" id="a4woKX115L"></path><path d="M136.98 282.47C132.39 281.07 127.4 281.93 123.55 284.81C121.86 286.08 113.43 292.39 98.25 303.76C83.07 292.39 74.64 286.08 72.95 284.81C69.1 281.93 64.11 281.07 59.52 282.47C59.52 282.47 46.83 286.37 46.71 286.41C26.3 293.21 12.58 312.24 12.58 333.76C12.58 341.37 12.58 402.28 12.58 409.89C12.58 412.83 13.44 415.7 15.06 418.15C16.76 420.74 25.27 433.69 40.59 457.01C40.59 518.23 40.59 552.24 40.59 559.05C40.59 567.36 47.32 574.09 55.63 574.09C64.16 574.09 132.34 574.09 140.86 574.09C149.18 574.09 155.91 567.36 155.91 559.05C155.91 552.24 155.91 518.23 155.91 457.01C171.23 433.69 179.74 420.74 181.44 418.15C183.06 415.7 183.92 412.83 183.92 409.89C183.92 402.28 183.92 341.37 183.92 333.76C183.92 312.24 170.2 293.21 149.79 286.41C149.67 286.37 139.54 283.26 136.98 282.47Z" id="b1nO7QfvUv"></path><path d="M320 83.41C284.19 83.41 255.05 112.55 255.05 148.37C255.05 184.18 284.19 213.32 320 213.32C355.81 213.32 384.95 184.18 384.95 148.37C384.95 112.55 355.81 83.41 320 83.41Z" id="dYlFlz55M"></path><path d="M391.23 244.76C380.11 241.35 373.93 239.45 372.7 239.07C369.77 238.17 366.65 239.72 365.6 242.61C361.7 253.3 330.51 338.87 326.61 349.56C324.36 355.73 315.64 355.73 313.39 349.56C309.49 338.87 278.31 253.3 274.41 242.61C273.56 240.28 271.36 238.82 269 238.82C268.44 238.82 248.79 244.75 248.79 244.75C225.11 252.64 209.29 274.6 209.29 299.42C209.29 310.74 209.29 401.25 209.29 412.57C209.29 413.69 209.62 414.79 210.23 415.73C212.94 419.85 226.5 440.49 250.91 477.63C250.91 571.6 250.91 623.8 250.91 634.24C250.91 637.42 253.49 640 256.67 640C269.33 640 370.67 640 383.34 640C386.52 640 389.09 637.42 389.09 634.24C389.09 623.8 389.09 571.6 389.09 477.63C413.5 440.49 427.06 419.85 429.77 415.73C430.39 414.79 430.72 413.69 430.72 412.57C430.72 401.22 430.72 310.47 430.72 299.13C430.71 274.41 414.83 252.49 391.34 244.8C391.34 244.8 391.31 244.79 391.23 244.76Z" id="f3E31aZMHE"></path><path d="M328.88 239.91C327.11 239.91 312.89 239.91 311.12 239.91C308.73 239.91 306.38 240.79 304.77 242.54C302.27 245.26 301.91 249.19 303.68 252.25C304.31 253.21 307.48 257.98 313.18 266.57L308.73 304.08C313.99 318.05 316.9 325.81 317.49 327.37C318.34 329.71 321.65 329.71 322.51 327.37C323.09 325.81 326.01 318.05 331.26 304.08L326.82 266.57C332.52 257.98 335.68 253.21 336.31 252.25C338.09 249.19 337.72 245.26 335.23 242.54C333.62 240.79 331.27 239.91 328.88 239.91Z" id="b1jEPqk5pR"></path></defs><g><g><g><use xlink:href="#c45JFNnoBj" opacity="1" fill="#79b602" fill-opacity="1"></use><g><use xlink:href="#c45JFNnoBj" opacity="1" fill-opacity="0" stroke="#000000" stroke-width="1" stroke-opacity="0"></use></g></g><g><use xlink:href="#a1eH47Qpus" opacity="1" fill="#79b602" fill-opacity="1"></use><g><use xlink:href="#a1eH47Qpus" opacity="1" fill-opacity="0" stroke="#000000" stroke-width="1" stroke-opacity="0"></use></g></g><g><use xlink:href="#a2FMDnZsAu" opacity="1" fill="#79b602" fill-opacity="1"></use><g><use xlink:href="#a2FMDnZsAu" opacity="1" fill-opacity="0" stroke="#000000" stroke-width="1" stroke-opacity="0"></use></g></g><g><use xlink:href="#a4woKX115L" opacity="1" fill="#79b602" fill-opacity="1"></use><g><use xlink:href="#a4woKX115L" opacity="1" fill-opacity="0" stroke="#000000" stroke-width="1" stroke-opacity="0"></use></g></g><g><use xlink:href="#b1nO7QfvUv" opacity="1" fill="#79b602" fill-opacity="1"></use><g><use xlink:href="#b1nO7QfvUv" opacity="1" fill-opacity="0" stroke="#000000" stroke-width="1" stroke-opacity="0"></use></g></g><g><use xlink:href="#dYlFlz55M" opacity="1" fill="#79b602" fill-opacity="1"></use><g><use xlink:href="#dYlFlz55M" opacity="1" fill-opacity="0" stroke="#000000" stroke-width="1" stroke-opacity="0"></use></g></g><g><use xlink:href="#f3E31aZMHE" opacity="1" fill="#79b602" fill-opacity="1"></use><g><use xlink:href="#f3E31aZMHE" opacity="1" fill-opacity="0" stroke="#000000" stroke-width="1" stroke-opacity="0"></use></g></g><g><use xlink:href="#b1jEPqk5pR" opacity="1" fill="#79b602" fill-opacity="1"></use><g><use xlink:href="#b1jEPqk5pR" opacity="1" fill-opacity="0" stroke="#000000" stroke-width="1" stroke-opacity="0"></use></g></g></g></g></svg>