<svg width="77" height="82" viewBox="0 0 77 82" fill="none" xmlns="http://www.w3.org/2000/svg">
<path d="M77 51.2256C77 49.5151 76.3732 47.9072 75.2386 46.6964C74.8392 46.271 74.3927 45.9143 73.9125 45.6285C73.9532 45.5875 73.9944 45.5473 74.0343 45.5048C75.17 44.2953 75.7969 42.6861 75.7969 40.9756C75.7969 39.2651 75.17 37.6572 74.0343 36.4464C72.8985 35.2356 71.3886 34.5694 69.7812 34.5694H60.1562H57.75H48.5172L52.8918 18.2654C52.9219 18.1514 52.9375 18.0323 52.9375 17.9131V8.94435C52.9375 7.57598 52.437 6.28832 51.5262 5.32098C49.7083 3.38373 46.5405 3.38373 44.7214 5.32098C43.8744 6.2217 43.3823 7.40045 43.3185 8.66376L39.8824 17.2046L24.7411 34.5694H21.6562H20.4531H0V37.1319H19.25V75.5694H0V78.1319H21.6562V37.1319H25.2656C25.6001 37.1319 25.9189 36.9832 26.1463 36.7231L41.7869 18.7856C41.882 18.6767 41.9578 18.5524 42.0119 18.4179L45.6213 9.44917C45.6863 9.29029 45.7188 9.11732 45.7188 8.94435C45.7188 8.26017 45.969 7.61698 46.4238 7.13267C47.3333 6.16404 48.9167 6.16404 49.8262 7.13267C50.281 7.61698 50.5312 8.26017 50.5312 8.94435V17.7337L45.7645 35.4983C45.661 35.8852 45.7344 36.3016 45.9606 36.6219C46.1892 36.9435 46.5453 37.1319 46.9219 37.1319H52.9383C52.1579 38.2347 51.7344 39.5707 51.7344 40.9756C51.7344 42.6861 52.3612 44.2953 53.4958 45.5048C53.5358 45.5474 53.5773 45.5878 53.6182 45.6291C53.1386 45.9148 52.6925 46.2713 52.2938 46.6964C51.1581 47.9059 50.5312 49.5151 50.5312 51.2256C50.5312 52.9361 51.1581 54.5453 52.2926 55.7548C52.6921 56.1802 53.1386 56.5369 53.6188 56.8227C53.578 56.8637 53.5368 56.9039 53.497 56.9464C52.3612 58.1559 51.7344 59.7651 51.7344 61.4756C51.7344 63.1861 52.3612 64.7953 53.4958 66.0048C53.8952 66.4302 54.3417 66.7869 54.8219 67.0727C54.7811 67.1137 54.7399 67.1539 54.7001 67.1964C53.5643 68.4059 52.9375 70.0151 52.9375 71.7256C52.9375 73.4361 53.5643 75.0453 54.6989 76.2548C55.8346 77.4643 57.3457 78.1319 58.9531 78.1319H67.375C68.9824 78.1319 70.4935 77.4643 71.628 76.2548C72.7638 75.0453 73.3906 73.4361 73.3906 71.7256C73.3906 70.0151 72.7638 68.4072 71.6292 67.1964C71.5892 67.1538 71.5477 67.1134 71.5068 67.0721C71.9864 66.7864 72.4325 66.4299 72.8312 66.0048C73.9669 64.7953 74.5938 63.1861 74.5938 61.4756C74.5938 59.8958 74.0581 58.4043 73.0825 57.2315C73.8827 56.9148 74.6168 56.4166 75.2374 55.7548C76.3732 54.5453 77 52.9361 77 51.2256ZM60.1562 37.1319H69.7812C70.7462 37.1319 71.6521 37.5316 72.3331 38.2581C73.014 38.9845 73.3906 39.9493 73.3906 40.9756C73.3906 42.0019 73.0153 42.968 72.3319 43.6931C71.6521 44.4196 70.7462 44.8194 69.7812 44.8194H57.75C56.7851 44.8194 55.8791 44.4196 55.1982 43.6931C54.5172 42.968 54.1406 42.0019 54.1406 40.9756C54.1406 39.9493 54.5172 38.9845 55.1982 38.2581C55.8791 37.5316 56.7851 37.1319 57.75 37.1319H60.1562ZM69.9256 74.4431C69.2459 75.1696 68.3399 75.5694 67.375 75.5694H58.9531C57.9882 75.5694 57.0823 75.1696 56.4013 74.4431C55.7203 73.7179 55.3438 72.7519 55.3438 71.7256C55.3438 70.6993 55.7203 69.7333 56.4025 69.0081C57.0823 68.2816 57.9882 67.8819 58.9531 67.8819H67.375C68.3399 67.8819 69.2459 68.2816 69.9256 69.0081H69.9268C70.6078 69.7333 70.9844 70.6993 70.9844 71.7256C70.9844 72.7519 70.609 73.7179 69.9256 74.4431ZM71.1287 64.1931C70.449 64.9196 69.543 65.3194 68.5781 65.3194H67.375H58.9531H57.75C56.7851 65.3194 55.8791 64.9196 55.1982 64.1931C54.5172 63.4679 54.1406 62.5019 54.1406 61.4756C54.1406 60.4493 54.5172 59.4833 55.1994 58.7581C55.8791 58.0316 56.7851 57.6319 57.75 57.6319H68.5781C69.543 57.6319 70.449 58.0316 71.1287 58.7581H71.13C71.8109 59.4833 72.1875 60.4493 72.1875 61.4756C72.1875 62.5019 71.8121 63.4679 71.1287 64.1931ZM73.535 53.9431C72.8552 54.6696 71.9493 55.0694 70.9844 55.0694H68.5781H57.75H56.5469C55.582 55.0694 54.676 54.6696 53.995 53.9431C53.3141 53.2179 52.9375 52.2519 52.9375 51.2256C52.9375 50.1993 53.3141 49.2333 53.9963 48.5081C54.676 47.7816 55.582 47.3819 56.5469 47.3819H57.75H69.7812H70.9844C71.9493 47.3819 72.8552 47.7816 73.535 48.5081H73.5362C74.2172 49.2333 74.5938 50.1993 74.5938 51.2256C74.5938 52.2519 74.2184 53.2179 73.535 53.9431Z" fill="#79B602"/>
<path d="M26.7527 73.0068H24.0625V75.5693H26.1848L30.9973 78.1318H51.7344V75.5693H31.5652L26.7527 73.0068Z" fill="#79B602"/>
<path d="M44.5156 44.8193H42.1094C42.1094 54.0033 35.0928 61.4756 26.4688 61.4756H24.0625V64.0381H26.4688C36.4198 64.0381 44.5156 55.4166 44.5156 44.8193Z" fill="#79B602"/>
<path d="M16.8438 70.4443H14.4375V73.0068H16.8438V70.4443Z" fill="#79B602"/>
<path d="M16.8438 65.3193H14.4375V67.8818H16.8438V65.3193Z" fill="#79B602"/>
</svg>
