<svg width="102" height="102" viewBox="0 0 102 102" xmlns="http://www.w3.org/2000/svg"><title>1</title><g transform="translate(1 1)" fill="none" fill-rule="evenodd"><circle stroke="#EEE" stroke-width="2" cx="50" cy="50" r="50"/><path d="M50.5 28c-6.843 0-12.41 5.495-12.41 12.25S43.658 52.5 50.5 52.5s12.41-5.495 12.41-12.25S57.342 28 50.5 28m0 26.25c-7.82 0-14.182-6.28-14.182-14s6.363-14 14.182-14c7.82 0 14.182 6.28 14.182 14s-6.363 14-14.182 14" fill="#FFF"/><path d="M50.5 22.75c-9.775 0-17.727 7.85-17.727 17.5 0 10.478 14.359 29.995 17.727 34.428 3.368-4.433 17.727-23.95 17.727-34.428 0-9.65-7.952-17.5-17.727-17.5m0 54.25a.89.89 0 0 1-.7-.338C49.034 75.687 31 52.657 31 40.25 31 29.635 39.748 21 50.5 21S70 29.635 70 40.25c0 12.407-18.033 35.438-18.8 36.412a.89.89 0 0 1-.7.338" fill="#FFF"/><path d="M44.295 41.215h2.41v2.356h-2.41v1.458h2.41v3.096h1.931v-3.096h3.932V43.57h-3.932v-2.356h2.387c3.886 0 5.727-1.84 5.727-4.375 0-2.446-1.34-4.465-5.886-4.465-1 0-3.273.045-4.16.045v7.336h-2.409v1.459zm6.75-7.045c2.523 0 3.66.942 3.66 2.804 0 1.885-1.41 2.782-3.75 2.782h-2.319v-5.541c.75-.023 1.773-.045 2.41-.045zm-1.431 33.205h1.772v-1.75h-1.772zm0-3.5h1.772v-1.75h-1.772zm0-3.5h1.772v-1.75h-1.772zM54.045 77H70v-1.75H54.045zM31 77h15.955v-1.75H31z" fill="#FFF"/></g></svg>