<svg width="102" height="102" viewBox="0 0 102 102" xmlns="http://www.w3.org/2000/svg"><title>4</title><g transform="translate(1 1)" fill="none" fill-rule="evenodd"><circle stroke="#EEE" stroke-width="2" cx="50" cy="50" r="50"/><path d="M32.511 59.318l9.172 9.17c4.373-2.806 32.847-21.872 33.614-42.785-20.913.766-39.98 29.241-42.786 33.615m9.052 11.089a.84.84 0 0 1-.597-.248L30.841 60.034a.843.843 0 0 1-.124-1.036C31.588 57.57 52.332 24 76.157 24c.465 0 .843.377.843.844 0 23.825-33.569 44.568-34.998 45.439a.836.836 0 0 1-.44.124" fill="#FFF"/><path d="M37.344 71.25a.841.841 0 0 1-.597-.247l-6.75-6.75a.843.843 0 0 1 0-1.193l2.531-2.532 1.194 1.194-1.935 1.934 5.557 5.557 1.934-1.935 1.194 1.194-2.532 2.53a.841.841 0 0 1-.596.248M23.844 78a.844.844 0 0 1-.844-.844c0-.255.06-6.315 5.31-11.565l1.193 1.193c-3.587 3.587-4.502 7.66-4.736 9.45 1.788-.234 5.861-1.15 9.449-4.737l1.193 1.193C30.16 77.94 24.099 78 23.844 78m37.969-41.344a2.534 2.534 0 0 0-2.532 2.532 2.534 2.534 0 0 0 2.532 2.53 2.534 2.534 0 0 0 2.53-2.53 2.534 2.534 0 0 0-2.53-2.532m0 6.75a4.224 4.224 0 0 1-4.22-4.218 4.224 4.224 0 0 1 4.22-4.22 4.224 4.224 0 0 1 4.218 4.22 4.224 4.224 0 0 1-4.219 4.218m-7.593.844a2.534 2.534 0 0 0-2.532 2.531 2.534 2.534 0 0 0 2.532 2.532 2.534 2.534 0 0 0 2.531-2.532 2.534 2.534 0 0 0-2.531-2.531m0 6.75A4.224 4.224 0 0 1 50 46.781a4.224 4.224 0 0 1 4.219-4.218 4.224 4.224 0 0 1 4.218 4.218A4.224 4.224 0 0 1 54.22 51m-7.595.844a2.534 2.534 0 0 0-2.531 2.531 2.534 2.534 0 0 0 2.531 2.531 2.534 2.534 0 0 0 2.531-2.531 2.534 2.534 0 0 0-2.531-2.531m0 6.75a4.224 4.224 0 0 1-4.219-4.219 4.224 4.224 0 0 1 4.219-4.219 4.224 4.224 0 0 1 4.219 4.219 4.224 4.224 0 0 1-4.219 4.219M54.219 78H45.78a.844.844 0 0 1-.843-.844v-6.75h1.687v5.906h7.047l14.12-31.563 1.54.689L54.99 77.501a.842.842 0 0 1-.77.499M30.594 56.063h-6.75a.844.844 0 0 1-.844-.844V46.78c0-.333.196-.634.5-.77l32.062-14.344.689 1.54-31.563 14.121v7.047h5.906v1.688zm43.875-21.938c-4.187 0-7.594-3.406-7.594-7.594h1.688a5.913 5.913 0 0 0 5.906 5.907v1.687z" fill="#FFF"/></g></svg>