<svg width="102" height="102" viewBox="0 0 102 102" xmlns="http://www.w3.org/2000/svg"><title>2</title><g transform="translate(1 1)" fill="none" fill-rule="evenodd"><circle stroke="#EEE" stroke-width="2" cx="50" cy="50" r="50"/><path fill="#FFF" d="M74.094 35.813h1.687v-1.688h-1.687zm-11.813 0h1.688v-1.688H62.28z"/><path d="M69.031 25.688c-5.117 0-9.281 4.163-9.281 9.28 0 5.118 4.164 9.282 9.281 9.282 5.118 0 9.281-4.164 9.281-9.281 0-5.118-4.163-9.282-9.28-9.282m0 20.25c-6.05 0-10.97-4.92-10.97-10.968S62.983 24 69.032 24C75.08 24 80 28.92 80 34.969c0 6.048-4.92 10.968-10.969 10.968" fill="#FFF"/><path d="M65.356 35.447h1.602v1.587h-1.602v.983h1.602v2.086h1.285v-2.086h2.615v-.983h-2.615v-1.587h1.587c2.585 0 3.809-1.24 3.809-2.947 0-1.648-.892-3.008-3.915-3.008-.665 0-2.176.03-2.766.03v4.943h-1.602v.982zm4.49-4.746c1.677 0 2.433.635 2.433 1.89 0 1.27-.938 1.874-2.494 1.874h-1.542V30.73c.499-.015 1.179-.03 1.602-.03zM60.594 78c-5.118 0-9.282-4.164-9.282-9.281V33.28c0-4.187-3.407-7.593-7.593-7.593-4.187 0-7.594 3.406-7.594 7.593v12.657h-1.688V33.28c0-5.117 4.164-9.281 9.282-9.281C48.836 24 53 28.164 53 33.281V68.72c0 4.187 3.407 7.594 7.594 7.594 4.186 0 7.593-3.407 7.593-7.594V49.313h1.688v19.406c0 5.117-4.164 9.281-9.281 9.281M34.438 56.063h1.687v-3.376h-1.688z" fill="#FFF"/><path fill="#FFF" d="M26.844 59.438h16.875V57.75H26.844z"/><path d="M30.219 51a2.534 2.534 0 0 0-2.532 2.531V68.72c0 4.187 3.408 7.594 7.594 7.594 4.187 0 7.594-3.407 7.594-7.594V53.53A2.534 2.534 0 0 0 40.344 51H30.219zm5.062 27C30.164 78 26 73.836 26 68.719V53.53a4.224 4.224 0 0 1 4.219-4.218h10.125a4.224 4.224 0 0 1 4.218 4.218v15.19c0 5.117-4.163 9.281-9.28 9.281zm14.344-44.719h-1.688a4.224 4.224 0 0 0-4.218-4.218A4.224 4.224 0 0 0 39.5 33.28h-1.688a5.913 5.913 0 0 1 5.907-5.906 5.913 5.913 0 0 1 5.906 5.906m10.969 40.501a5.913 5.913 0 0 1-5.907-5.906h1.688a4.224 4.224 0 0 0 4.219 4.219 4.224 4.224 0 0 0 4.218-4.219H66.5a5.913 5.913 0 0 1-5.906 5.906" fill="#FFF"/><path fill="#FFF" d="M59.75 68.719h1.688V67.03H59.75zm0-3.375h1.688v-1.688H59.75zm0-3.375h1.688V60.28H59.75zM42.875 40.875h1.688v-1.688h-1.688zm0-3.375h1.688v-1.688h-1.688zm0-3.375h1.688v-1.688h-1.688z"/></g></svg>