<svg width="102" height="102" viewBox="0 0 102 102" xmlns="http://www.w3.org/2000/svg"><title>3</title><g transform="translate(1 1)" fill="none" fill-rule="evenodd"><circle stroke="#EEE" stroke-width="2" cx="50" cy="50" r="50"/><path d="M45.188 68.625h-1.876a3.754 3.754 0 0 1 3.75-3.75h10.313A1.878 1.878 0 0 0 59.25 63a1.877 1.877 0 0 0-1.875-1.875h-8.602l-10.313-3.75h-8.273V55.5h8.603l10.313 3.75h8.272a3.754 3.754 0 0 1 3.75 3.75 3.754 3.754 0 0 1-3.75 3.75H47.062a1.877 1.877 0 0 0-1.874 1.875z" fill="#FFF"/><path d="M52.916 78h-2.264l-.152-.053-15.785-5.572h-3.59V70.5h3.91l.152.053 15.786 5.572h1.486l23.09-12.007c.257-.295.576-.79.576-1.118 0-.99-.771-1.805-1.746-1.87l-14.85 4.64-.558-1.79 15.28-4.73A3.754 3.754 0 0 1 78 63c0 1.285-1.087 2.412-1.212 2.537l-.232.17L52.917 78z" fill="#FFF"/><circle stroke="#FFF" stroke-width="1.5" cx="51" cy="45" r="8"/><circle stroke="#FFF" stroke-width="1.5" cx="64" cy="27" r="8"/><path fill="#FFF" d="M25.5 70.5h1.875v-1.875H25.5zm-3.75 0h1.875v-1.875H21.75z"/><path d="M29.25 74.25H18v-1.875h11.25V55.5H18v-1.875h11.25c1.033 0 1.875.84 1.875 1.875v16.875a1.878 1.878 0 0 1-1.875 1.875" fill="#FFF"/><path d="M48 45.929h1.057v1.047H48v.648h1.057V49h.848v-1.376h1.725v-.648h-1.725v-1.047h1.047c1.705 0 2.512-.818 2.512-1.945 0-1.087-.588-1.984-2.582-1.984-.439 0-1.436.02-1.825.02v3.26H48v.649zm2.962-3.131c1.106 0 1.605.419 1.605 1.246 0 .838-.618 1.237-1.645 1.237h-1.017v-2.463c.329-.01.777-.02 1.057-.02zM61 27.929h1.057v1.047H61v.648h1.057V31h.848v-1.376h1.725v-.648h-1.725v-1.047h1.047c1.705 0 2.512-.818 2.512-1.945 0-1.087-.588-1.984-2.582-1.984-.439 0-1.436.02-1.825.02v3.26H61v.649zm2.962-3.131c1.106 0 1.605.419 1.605 1.246 0 .838-.618 1.237-1.645 1.237h-1.017v-2.463c.329-.01.777-.02 1.057-.02z" stroke="#FFF" stroke-width=".5" fill="#FFF"/></g></svg>