<svg xmlns="http://www.w3.org/2000/svg" width="161" height="53"><path d="M1.3 1v50.58" fill="none" stroke-dasharray="0" stroke-linecap="square" stroke="#ff5100" stroke-miterlimit="50" stroke-width="2"/><path d="M135.28 49.73c5.41 0 9.49-3.92 9.49-9.37 0-5.65-4.08-9.36-9.49-9.36-5.59 0-9.46 4.1-9.46 9.36 0 5.66 4.05 9.37 9.46 9.37zm-87.08-.29h3.17V31.29H39.91l-.26 3.63c-.81 10.94-2.65 11.54-4.06 11.36l-.08 3.16c3.59.52 5.96-1.19 7.02-11.75l.36-3.42h5.31zm11.01 0l9.54-12.89v12.89h3.2V31.29h-2.81L59.6 44.2V31.29h-3.19v18.15zm50.19-15.17h5.9v15.17h3.19V34.27h5.9v-2.98H109.4zm-5.95 15.17h3.17V31.29h-3.17v7.41h-8.32v-7.41h-3.2v18.15h3.2v-7.75h8.32zm-83.45 0h3.2v-9.36l7.43 9.36h4.05l-7.95-9.7 7.49-8.45h-3.85L23.2 39.9v-8.61H20zm128.46-.02c1.06.07 3.4.13 5.06.13 3.85 0 6.76-1.72 6.76-5.45 0-2.41-1.4-3.79-3.2-4.23v-.05c1.56-.73 2.6-2.05 2.6-4.12 0-2.52-1.63-4.49-5.97-4.49-1.82 0-4.24.08-5.25.13zm-71.47.02h10.79v-2.98h-7.59v-4.7h6.55v-2.98h-6.55v-4.51h7.33v-2.98H76.99zm58.29-15.46c3.43 0 6.11 2.62 6.11 6.38 0 3.58-2.29 6.39-6.11 6.39-3.4 0-6.08-2.75-6.08-6.39 0-3.76 2.6-6.38 6.08-6.38zm18.63 7.66c2 0 3.17.77 3.17 2.3 0 1.72-1.17 2.62-3.32 2.62-.91 0-1.67-.07-2.11-.13v-4.79zm2.6-5.19c0 1.66-1.22 2.41-2.7 2.41h-2.16v-4.59c.57-.05 1.28-.08 2-.08 1.72 0 2.86.78 2.86 2.26zM26.39 19.57h3.2v-2.41c4.96-.03 8.39-2.59 8.39-7.13 0-4.46-3.43-7.06-8.39-7.14V1h-3.2v1.89C21.4 2.97 18 5.49 18 10.03c0 4.59 3.38 7.13 8.39 7.13zm14.53-.2h3.22l1.9-4.65h7.77l1.9 4.65h3.4L51.42 1.16h-2.81zm100.83 0h3.22l1.9-4.65h7.77l1.9 4.65h3.4l-7.69-18.21h-2.81zm-37.84 0l9.54-12.9v12.9h3.2V1.21h-2.81l-9.54 12.92V1.21h-3.19v18.16zm20.25 0h3.19V10l7.44 9.37h4.05l-7.95-9.71 7.48-8.45h-3.84l-7.18 8.61V1.21h-3.19zm-38.23 0V12.8c.78.08 1.82.08 2.37.08 4.34 0 6.65-2.8 6.65-5.89 0-2.98-1.69-5.83-7.04-5.83-1.28 0-4.16.05-5.18.05v18.16zm-21.62 0c1.07 0 2.62.1 4.73.1 4.47 0 7.02-2.15 7.02-5.92 0-3.34-2.32-5.47-6.11-5.47-.65 0-1.74.05-2.44.16V4.19h7.43V1.21H64.31zm-34.72-5.14V5.82c3.4.06 5.02 1.77 5.02 4.21 0 2.77-1.72 4.17-5.02 4.2zm-3.2-8.41v8.41c-3.19-.03-5.01-1.48-5.01-4.2 0-2.47 1.69-4.18 5.01-4.21zm23.55-.54l2.65 6.46h-5.33zm41.63 1.69c0 2.02-1.48 2.93-3.38 2.93-.73 0-1.51-.05-2.26-.13V4.19c.86-.03 1.64-.05 2.29-.05 2.18 0 3.35.93 3.35 2.83zm-18.68 6.82c0 1.61-.99 2.7-3.36 2.7-.67 0-1.3-.06-2.02-.11v-5.16c.8-.1 1.58-.16 2.18-.16 2.23 0 3.2 1.17 3.2 2.73zm77.88-8.51l2.65 6.46h-5.33z" fill="#fff"/></svg>