<svg xmlns="http://www.w3.org/2000/svg" width="16" height="16"><path d="M11.63 10.06c-.42-.14-.89-.03-1.16.25l-1.83 1.3c-2.12-1.12-3.46-2.46-4.57-4.55l1.58-1.64c.32-.31.43-.77.29-1.19-.4-1.23-.61-2.26-.61-3.06C5.33.52 4.81 0 4.17 0h-3C.52 0 0 .52 0 1.17 0 9.21 6.79 16 14.83 16c.65 0 1.17-.52 1.17-1.17v-3c0-.64-.52-1.16-1.17-1.16-1.01 0-2.36-.33-3.2-.61zm3.2 5.27C7.15 15.33.67 8.85.67 1.17c0-.28.22-.5.5-.5h3c.27 0 .5.22.5.5 0 .87.21 1.97.64 3.26.06.19.01.38-.13.52L3.43 6.77c-.1.1-.13.25-.06.38 1.23 2.41 2.72 3.9 5.14 5.15.11.05.25.04.35-.03l2.04-1.46c.14-.13.34-.18.51-.12.94.31 2.33.64 3.42.64.28 0 .5.23.5.5v3c0 .28-.22.5-.5.5z" fill="#ff5100"/></svg>