<svg xmlns="http://www.w3.org/2000/svg" width="15" height="10"><path d="M7.16 9.39h.87s.27-.03.4-.17c.12-.14.12-.39.12-.39s-.02-1.19.53-1.36c.53-.17 1.22 1.15 1.95 1.65.56.39.98.3.98.3l1.95-.03s1.02-.06.54-.87c-.04-.07-.28-.6-1.46-1.7-1.22-1.15-1.06-.96.42-2.95.9-1.21 1.26-1.95 1.15-2.26-.11-.3-.77-.22-.77-.22l-2.2.01s-.17-.02-.29.05c-.11.07-.19.24-.19.24s-.35.93-.81 1.73C9.37 5.1 8.98 5.19 8.82 5.09c-.38-.25-.28-.98-.28-1.5 0-1.63.24-2.31-.48-2.48-.24-.06-.41-.1-1.03-.11-.78-.01-1.44 0-1.82.19-.25.12-.44.4-.33.42.15.02.48.09.65.33.23.31.22 1 .22 1s.13 1.92-.3 2.16c-.3.16-.71-.17-1.58-1.7-.45-.78-.78-1.64-.78-1.64s-.07-.16-.19-.25c-.14-.1-.33-.14-.33-.14l-2.09.02s-.32 0-.43.14c-.1.13-.01.38-.01.38s1.64 3.87 3.49 5.81c1.7 1.79 3.63 1.67 3.63 1.67" fill="#fff"/></svg>